<svg width="574" height="279" viewBox="0 0 574 279" fill="none" xmlns="http://www.w3.org/2000/svg">
<path d="M273.893 127.953C273.473 129.505 273.052 131.089 273.149 132.706C273.246 134.323 273.99 135.972 275.412 136.748C277.029 137.622 279.486 137.492 280.165 139.206C280.617 140.37 279.874 141.858 280.52 142.925C281.458 144.445 283.979 143.572 285.434 144.606C286.566 145.383 286.727 146.999 286.598 148.39C286.469 149.78 286.21 151.268 286.889 152.464C287.697 153.855 289.54 154.405 290.284 155.795C291.221 157.541 290.09 159.643 288.861 161.163C287.6 162.683 286.113 164.3 286.21 166.272L262.998 166.984L261.543 130.022L273.893 127.953Z" fill="#283252"/>
<path d="M275.962 144.186C275.93 144.186 275.93 144.024 275.8 143.701C275.671 143.41 275.412 143.022 274.992 142.634C274.572 142.246 273.958 141.89 273.246 141.599C272.535 141.308 271.727 141.017 270.951 140.564C270.563 140.338 270.208 140.047 269.949 139.691C269.69 139.368 269.464 138.98 269.335 138.624C269.076 137.88 269.044 137.169 269.076 136.587C269.108 136.005 269.173 135.52 269.238 135.196C269.27 135.035 269.302 134.905 269.302 134.841C269.335 134.744 269.335 134.711 269.335 134.711C269.335 134.711 269.335 134.905 269.27 135.229C269.238 135.552 269.173 136.037 269.173 136.587C269.173 137.169 269.205 137.88 269.464 138.592C269.593 138.947 269.787 139.303 270.046 139.626C270.305 139.95 270.628 140.209 271.016 140.435C271.759 140.888 272.568 141.179 273.279 141.47C273.99 141.761 274.604 142.149 275.024 142.537C275.477 142.925 275.703 143.378 275.833 143.669C275.897 143.83 275.93 143.96 275.93 144.024C275.962 144.154 275.962 144.186 275.962 144.186Z" fill="#455A64"/>
<path d="M240.336 214.746L237.653 229.201H290.671C290.671 229.201 288.861 220.631 281.296 211.156L240.336 214.746Z" fill="#283252"/>
<path d="M239.56 200.905L237.653 173.257L240.789 144.93L257.987 142.537L270.563 143.927L279.163 172.998L281.49 198.901C281.49 198.901 282.719 202.975 284.141 207.761C284.917 210.413 283.85 213.291 281.49 214.714C279.453 215.942 276.382 216.912 271.953 216.46C261.77 215.393 250.196 213.549 244.603 214.455C239.01 215.36 238.235 214.067 238.235 214.067C238.235 214.067 236.456 212.353 237.006 210.348C237.588 208.311 239.56 200.905 239.56 200.905Z" fill="#15ACC0"/>
<path d="M280.941 198.707L280.811 198.836C280.682 198.933 280.553 199.03 280.391 199.159C280.003 199.45 279.453 199.838 278.807 200.324C277.449 201.326 275.639 202.749 273.634 204.333C271.63 205.918 269.819 207.341 268.494 208.376C267.815 208.893 267.298 209.281 266.91 209.572C266.748 209.701 266.587 209.798 266.457 209.895C266.36 209.96 266.296 209.992 266.296 209.992C266.296 209.992 266.328 209.928 266.425 209.863C266.522 209.766 266.684 209.669 266.845 209.507C267.233 209.216 267.75 208.796 268.397 208.278C269.722 207.211 271.533 205.789 273.505 204.204C275.509 202.619 277.352 201.229 278.71 200.259C279.389 199.774 279.938 199.386 280.326 199.127C280.52 198.998 280.65 198.901 280.779 198.836C280.908 198.739 280.941 198.707 280.941 198.707Z" fill="white"/>
<path d="M267.072 152.594C267.039 152.626 266.651 152.141 266.199 151.559C265.746 150.944 265.423 150.427 265.455 150.427C265.488 150.395 265.875 150.88 266.328 151.462C266.748 152.044 267.104 152.561 267.072 152.594ZM269.141 148.325C269.108 148.357 268.72 147.775 268.074 147.29C267.395 146.805 266.748 146.611 266.748 146.547C266.748 146.514 267.46 146.611 268.171 147.129C268.85 147.678 269.173 148.325 269.141 148.325ZM252.847 152.044C252.879 152.076 252.427 152.561 252.168 153.337C251.91 154.113 251.974 154.76 251.91 154.76C251.877 154.76 251.716 154.081 252.006 153.273C252.297 152.497 252.815 152.012 252.847 152.044ZM246.284 146.385C246.284 146.45 245.541 146.45 244.636 146.579C243.73 146.708 243.019 146.902 242.987 146.87C242.987 146.838 243.666 146.547 244.603 146.417C245.541 146.288 246.284 146.353 246.284 146.385Z" fill="#283252"/>
<path opacity="0.3" d="M239.722 198.448C244.151 196.605 247.157 192.336 248.935 187.874C250.746 183.411 251.586 178.625 253.203 174.13C253.688 172.804 254.496 171.285 255.918 171.252C257.082 171.22 257.955 172.222 258.602 173.16C261.705 177.623 263.677 182.732 266.069 187.615C268.462 192.498 271.436 197.316 275.93 200.356C276.77 200.906 277.675 201.423 278.678 201.488C279.68 201.552 280.779 201.035 281.102 200.065C281.232 199.677 281.232 199.256 281.232 198.836C281.199 196.411 281.135 193.953 281.102 191.528C281.07 188.876 281.005 186.192 280.003 183.734C278.548 180.177 275.348 177.687 272.406 175.23C268.526 171.964 264.873 168.439 261.931 164.3C260.897 162.845 259.927 161.26 258.505 160.161C257.082 159.061 255.078 158.479 253.461 159.287C251.651 160.161 250.972 162.327 250.455 164.267C247.513 175.262 244.215 186.192 240.562 196.96" fill="black"/>
<path d="M239.301 196.896C242.566 196.605 245.056 193.015 245.929 189.879L253.073 164.688L242.179 157.38L237.814 171.867L240.821 144.897C240.821 144.897 230.831 147.42 228.471 159.546C226.499 169.829 225.788 179.401 226.273 183.152C226.273 183.185 226.338 197.995 239.301 196.896ZM257.89 166.822C257.89 166.822 262.836 179.369 267.75 186.645C272.438 193.597 280.326 200.615 285.402 199.774C290.477 198.933 293.128 185.998 293.128 181.148C293.128 176.297 286.921 156.41 286.921 156.41C286.921 156.41 285.693 145.221 274.863 143.895L267.266 143.539L278.807 172.158L273.958 166.369C273.958 166.369 274.572 164.817 273.796 163.103C273.02 161.389 267.88 157.024 267.88 157.024L257.89 166.822Z" fill="#15ACC0"/>
<path d="M238.073 168.277C238.073 168.277 238.008 168.148 237.944 167.889C237.879 167.63 237.782 167.242 237.653 166.79C237.394 165.884 236.941 164.623 236.327 163.33C235.713 162.004 235.002 160.904 234.452 160.128C234.193 159.74 233.967 159.417 233.805 159.223C233.644 158.996 233.547 158.899 233.579 158.867L233.87 159.158C234.032 159.352 234.29 159.675 234.581 160.031C235.163 160.807 235.875 161.907 236.521 163.233C237.135 164.558 237.556 165.82 237.814 166.757C237.944 167.21 238.008 167.598 238.073 167.857C238.073 168.148 238.105 168.277 238.073 168.277ZM273.473 183.67C273.473 183.67 273.44 183.605 273.408 183.508C273.343 183.379 273.311 183.217 273.214 183.023C273.149 182.829 273.052 182.57 272.955 182.247C272.858 181.956 272.761 181.6 272.664 181.212C272.567 180.824 272.47 180.404 272.373 179.919C272.276 179.466 272.212 178.948 272.115 178.431C271.986 177.364 271.889 176.2 271.921 175.003C271.953 173.775 272.083 172.61 272.244 171.576C272.341 171.058 272.438 170.541 272.535 170.088C272.632 169.635 272.761 169.215 272.858 168.827C272.955 168.439 273.085 168.116 273.182 167.792C273.279 167.501 273.376 167.242 273.473 167.016C273.57 166.822 273.634 166.66 273.667 166.531C273.699 166.434 273.731 166.369 273.731 166.369C273.731 166.369 273.731 166.434 273.667 166.531C273.634 166.66 273.57 166.822 273.505 167.016C273.44 167.21 273.343 167.469 273.246 167.792C273.149 168.083 273.02 168.439 272.923 168.827C272.826 169.215 272.697 169.635 272.6 170.088C272.503 170.541 272.406 171.026 272.309 171.543C272.147 172.578 272.018 173.742 272.018 174.971C271.986 176.2 272.083 177.332 272.212 178.399C272.276 178.916 272.341 179.434 272.438 179.886C272.503 180.339 272.6 180.759 272.697 181.147C272.794 181.535 272.891 181.891 272.955 182.182C273.02 182.473 273.117 182.764 273.182 182.958C273.246 183.152 273.279 183.314 273.343 183.443C273.44 183.605 273.473 183.67 273.473 183.67ZM286.792 186.645V186.483C286.792 186.354 286.824 186.224 286.824 186.063C286.857 185.869 286.857 185.642 286.857 185.384C286.857 185.125 286.889 184.802 286.857 184.478C286.857 184.316 286.824 184.122 286.824 183.961C286.824 183.767 286.792 183.573 286.76 183.379C286.727 182.991 286.63 182.57 286.533 182.118C286.339 181.244 286.048 180.307 285.628 179.369C285.208 178.431 284.691 177.59 284.173 176.847C283.915 176.491 283.656 176.135 283.365 175.844C283.236 175.682 283.107 175.553 282.977 175.424L282.589 175.036C282.363 174.777 282.104 174.615 281.91 174.421C281.716 174.227 281.522 174.098 281.361 174.001C281.232 173.904 281.102 173.807 281.005 173.742C280.941 173.678 280.876 173.645 280.876 173.645L281.005 173.71C281.102 173.775 281.232 173.872 281.361 173.936C281.522 174.033 281.716 174.163 281.91 174.357C282.104 174.518 282.363 174.712 282.622 174.939C282.751 175.068 282.88 175.165 283.01 175.294C283.139 175.424 283.268 175.585 283.398 175.715C283.688 176.006 283.947 176.362 284.206 176.717C284.723 177.461 285.273 178.302 285.693 179.24C286.113 180.21 286.404 181.147 286.598 182.021C286.695 182.473 286.76 182.894 286.792 183.282C286.824 183.476 286.857 183.67 286.857 183.864C286.857 184.058 286.857 184.219 286.889 184.413C286.921 184.769 286.889 185.06 286.889 185.319C286.889 185.578 286.857 185.836 286.824 185.998C286.792 186.16 286.792 186.321 286.76 186.418C286.824 186.58 286.792 186.645 286.792 186.645Z" fill="#283252"/>
<path d="M287.115 177.817C287.083 177.817 286.824 177.526 286.404 177.008C285.984 176.523 285.369 175.812 284.626 175.197C283.882 174.551 283.074 174.13 282.428 174.001C281.781 173.872 281.393 173.969 281.393 173.936C281.393 173.936 281.49 173.904 281.684 173.872C281.781 173.839 281.878 173.839 282.007 173.839H282.234C282.298 173.839 282.395 173.872 282.46 173.872C283.139 173.969 283.979 174.389 284.755 175.036C285.531 175.682 286.113 176.394 286.533 176.911C286.727 177.17 286.889 177.396 286.986 177.526C287.051 177.72 287.115 177.784 287.115 177.817Z" fill="#283252"/>
<path d="M289.378 175.489C289.346 175.553 288.182 174.842 286.566 174.518C284.949 174.195 283.624 174.454 283.591 174.389C283.591 174.357 283.915 174.292 284.464 174.227C285.014 174.195 285.757 174.195 286.598 174.357C287.406 174.518 288.117 174.809 288.602 175.036C289.12 175.294 289.378 175.489 289.378 175.489ZM282.331 147.711C282.331 147.711 282.266 147.743 282.169 147.808C282.04 147.873 281.878 147.937 281.716 148.034C281.619 148.099 281.49 148.131 281.393 148.196C281.264 148.261 281.134 148.358 281.005 148.422C280.747 148.584 280.423 148.778 280.1 149.037C279.938 149.166 279.777 149.295 279.583 149.425C279.421 149.554 279.259 149.748 279.065 149.91C278.71 150.233 278.387 150.621 278.031 151.009C277.352 151.85 276.705 152.852 276.156 153.952C275.057 156.183 274.507 158.382 274.216 159.999C274.119 160.387 274.087 160.775 274.022 161.098C273.958 161.422 273.925 161.681 273.893 161.907C273.861 162.133 273.828 162.295 273.828 162.424C273.796 162.554 273.796 162.618 273.796 162.618V162.424C273.796 162.295 273.828 162.101 273.828 161.907C273.861 161.681 273.861 161.389 273.925 161.066C273.958 160.743 274.022 160.387 274.087 159.967C274.378 158.35 274.895 156.118 275.994 153.887C276.544 152.755 277.223 151.753 277.902 150.912C278.257 150.524 278.581 150.104 278.968 149.813C279.162 149.651 279.324 149.489 279.486 149.36C279.68 149.231 279.841 149.101 280.003 148.972C280.326 148.713 280.65 148.552 280.941 148.358C281.07 148.261 281.199 148.196 281.328 148.131C281.458 148.067 281.555 148.034 281.684 147.97C281.878 147.873 282.04 147.808 282.169 147.743C282.266 147.711 282.331 147.711 282.331 147.711ZM235.034 176.62C235.034 176.62 235.034 176.588 235.066 176.523C235.099 176.459 235.131 176.362 235.163 176.265C235.26 176.038 235.357 175.683 235.519 175.23C235.842 174.324 236.295 172.999 236.877 171.317C238.073 167.954 239.754 163.2 241.758 157.606L241.791 157.509L241.855 157.541C243.633 158.576 245.314 159.837 247.222 161.034C249.129 162.198 251.101 163.394 253.138 164.623L253.203 164.656L253.17 164.72C253.041 165.108 252.944 165.561 252.815 165.981C249.905 176.071 247.286 185.125 245.573 191.172C244.474 193.63 243.116 195.408 241.888 196.249C241.273 196.669 240.724 196.863 240.336 196.896C240.724 196.831 241.273 196.669 241.855 196.249C243.051 195.408 244.377 193.63 245.476 191.204C247.189 185.19 249.776 176.103 252.685 166.014C252.815 165.593 252.944 165.141 253.041 164.753L253.073 164.85C251.037 163.621 249.065 162.424 247.189 161.26C245.314 160.064 243.601 158.77 241.855 157.768L241.952 157.735C239.948 163.33 238.234 168.083 237.038 171.446C236.424 173.096 235.971 174.421 235.616 175.327C235.454 175.78 235.325 176.103 235.228 176.362C235.196 176.459 235.163 176.556 235.131 176.62C235.034 176.588 235.034 176.62 235.034 176.62Z" fill="#283252"/>
<path d="M235.292 176.394C235.292 176.426 234.872 176.588 234.193 176.976C233.547 177.364 232.674 177.978 231.866 178.787C231.057 179.628 230.476 180.501 230.12 181.18C229.764 181.859 229.603 182.312 229.57 182.279C229.57 182.279 229.603 182.15 229.667 181.956C229.732 181.762 229.861 181.471 230.023 181.115C230.346 180.436 230.928 179.498 231.769 178.658C232.577 177.817 233.482 177.202 234.161 176.847C234.517 176.653 234.775 176.523 235.002 176.459C235.163 176.426 235.292 176.394 235.292 176.394ZM235.422 175.456C235.422 175.488 235.099 175.456 234.549 175.488C234.032 175.488 233.288 175.553 232.48 175.715C231.672 175.877 230.993 176.103 230.476 176.297L229.667 176.62C229.667 176.588 229.926 176.426 230.443 176.2C230.928 175.974 231.639 175.715 232.448 175.553C233.256 175.391 233.999 175.359 234.549 175.391C235.066 175.359 235.422 175.424 235.422 175.456ZM282.007 199.289C282.007 199.289 281.943 199.256 281.813 199.224C281.684 199.159 281.49 199.095 281.264 198.998C281.037 198.901 280.714 198.804 280.358 198.61C280.003 198.448 279.615 198.222 279.162 197.995C277.417 197.025 275.024 195.311 272.535 192.692C270.013 190.105 267.459 186.645 265.035 182.538C262.61 178.431 260.347 173.71 258.407 168.568C258.181 167.986 257.987 167.404 257.793 166.822L257.761 166.757L257.793 166.725C261.77 162.877 265.52 159.223 268.882 155.957L268.947 155.892L269.011 155.957C270.66 157.768 272.147 159.546 273.246 161.389C273.505 161.842 273.763 162.295 273.957 162.78C274.151 163.265 274.313 163.75 274.313 164.235C274.313 164.494 274.216 164.72 274.151 164.947C274.087 165.173 274.022 165.399 273.99 165.626C273.957 165.852 273.957 166.078 273.99 166.272C274.022 166.466 274.151 166.66 274.313 166.725H274.345C276.479 168.924 278.16 170.703 279.324 171.899C279.906 172.513 280.359 172.966 280.649 173.29C280.811 173.451 280.908 173.581 280.973 173.645C281.037 173.742 281.07 173.775 281.07 173.775L280.94 173.645L280.585 173.29L279.227 171.931C278.063 170.735 276.35 168.989 274.216 166.79H274.248C273.99 166.725 273.86 166.466 273.828 166.24C273.763 166.014 273.796 165.787 273.828 165.561C273.86 165.335 273.925 165.108 273.99 164.882C274.054 164.655 274.119 164.429 274.119 164.203C274.119 163.718 273.957 163.265 273.796 162.78C273.602 162.327 273.343 161.874 273.085 161.389C271.985 159.579 270.531 157.8 268.85 155.989H268.947C265.584 159.255 261.834 162.909 257.858 166.79L257.89 166.693C258.084 167.275 258.278 167.857 258.504 168.407C260.444 173.548 262.707 178.269 265.099 182.344C267.492 186.451 270.046 189.911 272.535 192.498C274.992 195.117 277.384 196.831 279.13 197.834C279.583 198.06 279.971 198.286 280.326 198.448C280.649 198.642 280.973 198.739 281.231 198.868C281.458 198.965 281.652 199.062 281.781 199.095C281.943 199.256 282.007 199.289 282.007 199.289ZM263.677 184.705C263.677 184.705 263.515 184.705 263.224 184.672C262.933 184.64 262.545 184.575 262.028 184.446C261.058 184.187 259.733 183.605 258.569 182.538C257.405 181.471 256.726 180.21 256.403 179.24C256.241 178.755 256.144 178.366 256.08 178.075C256.047 177.784 256.015 177.623 256.015 177.623C256.047 177.623 256.112 178.237 256.5 179.175C256.856 180.113 257.535 181.342 258.666 182.409C259.798 183.443 261.091 184.058 262.028 184.317C263.063 184.64 263.709 184.672 263.677 184.705ZM273.763 206.274L273.699 206.338C273.634 206.371 273.569 206.435 273.473 206.468C273.279 206.597 272.988 206.759 272.664 206.985C272.47 207.114 272.276 207.211 272.082 207.373C271.856 207.502 271.597 207.632 271.339 207.761C270.822 208.052 270.207 208.408 269.528 208.699L268.462 209.184C268.074 209.346 267.686 209.507 267.265 209.669C266.457 210.025 265.52 210.283 264.582 210.574C262.642 211.124 260.476 211.545 258.181 211.771C255.886 211.965 253.655 211.9 251.683 211.739C250.681 211.609 249.743 211.512 248.87 211.318C248.45 211.221 247.998 211.156 247.61 211.059L246.446 210.768C245.702 210.607 245.056 210.348 244.506 210.186C244.215 210.089 243.957 210.025 243.698 209.928C243.472 209.831 243.245 209.734 243.051 209.669C242.663 209.507 242.372 209.378 242.146 209.281C242.049 209.249 241.984 209.216 241.92 209.184L241.855 209.152C241.855 209.152 241.887 209.152 241.952 209.184C242.017 209.216 242.081 209.249 242.178 209.281C242.405 209.378 242.696 209.475 243.084 209.637C243.278 209.701 243.504 209.798 243.73 209.895C243.957 209.992 244.247 210.057 244.538 210.154C245.12 210.316 245.767 210.574 246.478 210.736C246.834 210.833 247.222 210.93 247.642 211.027C248.03 211.124 248.483 211.189 248.903 211.253C249.776 211.447 250.713 211.545 251.715 211.642C253.687 211.803 255.886 211.868 258.181 211.674C260.476 211.447 262.61 211.027 264.55 210.51C265.487 210.219 266.425 209.96 267.233 209.637C267.653 209.475 268.041 209.346 268.429 209.184C268.817 209.022 269.173 208.861 269.496 208.699C270.207 208.408 270.789 208.052 271.306 207.793C271.565 207.664 271.824 207.535 272.05 207.405C272.276 207.276 272.47 207.147 272.664 207.05C273.02 206.823 273.311 206.662 273.505 206.565C273.602 206.5 273.666 206.468 273.731 206.435C273.731 206.306 273.763 206.274 273.763 206.274ZM269.334 197.995C269.334 197.995 269.302 198.06 269.27 198.157C269.205 198.286 269.14 198.416 269.043 198.577C268.947 198.771 268.817 198.998 268.656 199.256C268.494 199.515 268.3 199.806 268.074 200.129C267.944 200.291 267.847 200.453 267.718 200.615C267.589 200.776 267.459 200.938 267.298 201.132C267.007 201.488 266.684 201.843 266.328 202.199C265.617 202.91 264.776 203.687 263.806 204.366C262.836 205.045 261.867 205.627 260.961 206.08C260.509 206.306 260.056 206.5 259.636 206.662C259.216 206.823 258.828 206.953 258.44 207.082C258.084 207.211 257.728 207.276 257.438 207.373C257.147 207.47 256.888 207.502 256.662 207.535C256.468 207.567 256.306 207.599 256.177 207.632C256.08 207.664 256.015 207.664 256.015 207.664C256.015 207.664 256.08 207.632 256.177 207.599C256.306 207.567 256.468 207.535 256.662 207.47C256.856 207.438 257.114 207.373 257.405 207.276C257.696 207.179 258.019 207.114 258.407 206.985C258.763 206.856 259.183 206.726 259.571 206.565C259.991 206.403 260.412 206.177 260.897 205.982C261.802 205.53 262.772 204.98 263.709 204.301C264.647 203.622 265.487 202.878 266.199 202.167C266.554 201.811 266.877 201.455 267.168 201.1C267.298 200.938 267.459 200.776 267.589 200.615C267.718 200.453 267.847 200.291 267.944 200.129C268.171 199.838 268.365 199.547 268.559 199.289C268.72 199.03 268.882 198.804 268.979 198.642C269.076 198.48 269.173 198.319 269.237 198.222C269.302 198.028 269.334 197.995 269.334 197.995Z" fill="#283252"/>
<path d="M261.867 167.695C261.834 167.728 261.285 167.178 260.897 166.305C260.476 165.464 260.379 164.688 260.444 164.688C260.509 164.688 260.67 165.399 261.058 166.24C261.446 167.081 261.899 167.663 261.867 167.695ZM264.938 164.429C264.905 164.462 264.55 163.75 264.162 162.877C263.774 162.004 263.483 161.26 263.548 161.228C263.58 161.195 263.936 161.907 264.324 162.78C264.711 163.685 265.002 164.397 264.938 164.429ZM268.268 161.292C268.235 161.292 267.977 160.646 267.556 159.87C267.136 159.094 266.716 158.511 266.781 158.479C266.813 158.447 267.298 158.997 267.718 159.805C268.138 160.581 268.332 161.292 268.268 161.292ZM247.998 166.272C247.965 166.272 248.159 165.367 248.483 164.268C248.644 163.685 248.806 163.168 248.935 162.812C249 162.489 249.032 162.295 249.064 162.295C249.097 162.295 249.064 162.489 249.032 162.812C248.935 163.168 248.806 163.685 248.644 164.3C248.321 165.432 248.03 166.305 247.998 166.272ZM244.571 159.288C244.603 159.288 244.441 159.934 244.183 160.678C243.924 161.422 243.698 162.036 243.633 162.004C243.601 162.004 243.763 161.357 244.021 160.613C244.28 159.87 244.538 159.255 244.571 159.288Z" fill="#283252"/>
<path opacity="0.2" d="M235.163 176.556C235.131 176.006 234.743 175.553 234.226 175.294C233.741 175.036 233.191 175.003 232.642 174.939C233.45 174.615 234.258 174.324 234.872 173.71C235.584 173.031 235.971 172.093 236.327 171.188C237.135 169.118 237.976 166.79 237.2 164.72C237.071 164.397 237.006 163.879 237.362 163.847C237.588 163.815 237.75 164.073 237.847 164.267C238.17 164.979 238.493 165.723 238.816 166.434M256.5 179.078C256.371 180.404 256.565 181.762 257.082 182.958C257.567 184.09 258.375 185.125 259.507 185.61C260.638 186.063 262.125 185.804 262.804 184.737C261.446 184.252 260.024 183.734 258.892 182.829C257.729 181.956 256.823 180.598 256.823 179.143" fill="black"/>
<path d="M277.352 144.606L277.255 144.703L276.964 144.994C276.673 145.253 276.285 145.641 275.768 146.094C274.733 147.064 273.214 148.455 271.371 150.136C267.653 153.564 262.513 158.253 256.823 163.459C256.306 163.912 255.821 164.397 255.336 164.817L255.272 164.882L255.207 164.817C249.743 160.064 244.83 155.827 241.306 152.788C239.56 151.268 238.137 150.039 237.168 149.166C236.683 148.746 236.327 148.422 236.036 148.196C235.907 148.099 235.81 148.002 235.745 147.937L235.648 147.84C235.648 147.84 235.681 147.872 235.745 147.905C235.81 147.97 235.907 148.034 236.036 148.164C236.295 148.39 236.683 148.713 237.168 149.134C238.17 149.974 239.592 151.203 241.338 152.723C244.862 155.763 249.776 159.999 255.272 164.72H255.175C255.66 164.3 256.145 163.815 256.662 163.362C262.352 158.156 267.492 153.467 271.242 150.071C273.117 148.39 274.636 146.999 275.671 146.062C276.188 145.609 276.608 145.221 276.867 144.962C276.996 144.833 277.093 144.736 277.19 144.671C277.32 144.606 277.352 144.574 277.352 144.606ZM288.085 161.519C288.085 161.519 287.891 161.551 287.536 161.583C287.342 161.583 287.148 161.616 286.889 161.648C286.63 161.681 286.339 161.713 286.016 161.778C285.693 161.842 285.337 161.875 284.982 161.972C284.594 162.036 284.206 162.166 283.818 162.263C283.01 162.521 282.137 162.845 281.231 163.265C280.359 163.685 279.55 164.17 278.839 164.656C278.484 164.914 278.16 165.141 277.869 165.367C277.578 165.593 277.32 165.82 277.061 166.046C276.802 166.24 276.608 166.466 276.415 166.628C276.221 166.79 276.091 166.951 275.962 167.113C275.703 167.372 275.574 167.534 275.574 167.501C275.574 167.501 275.703 167.34 275.93 167.048C276.059 166.919 276.188 166.725 276.382 166.563L276.996 165.949C277.223 165.723 277.481 165.496 277.805 165.238C278.096 164.979 278.419 164.753 278.775 164.494C279.486 164.009 280.294 163.524 281.199 163.071C282.104 162.651 282.977 162.327 283.818 162.069C284.238 161.972 284.626 161.842 285.014 161.778C285.402 161.681 285.725 161.648 286.048 161.583C286.372 161.519 286.663 161.519 286.921 161.486C287.18 161.454 287.406 161.454 287.568 161.454C287.891 161.486 288.085 161.486 288.085 161.519ZM289.378 196.184C289.378 196.184 289.411 196.12 289.443 195.99C289.508 195.829 289.572 195.667 289.669 195.408C289.766 195.15 289.896 194.859 290.025 194.503L290.219 193.921C290.251 193.824 290.283 193.727 290.316 193.597C290.348 193.5 290.38 193.371 290.413 193.242C290.542 192.789 290.671 192.272 290.736 191.722C290.768 191.431 290.833 191.172 290.865 190.849C290.898 190.558 290.93 190.234 290.93 189.911C290.995 188.65 290.898 187.259 290.574 185.804C290.251 184.381 289.734 183.055 289.184 181.924C288.635 180.759 288.02 179.789 287.503 178.981C286.954 178.173 286.501 177.558 286.178 177.138C286.016 176.944 285.887 176.782 285.822 176.653C285.725 176.523 285.693 176.491 285.693 176.459L285.854 176.62C285.951 176.75 286.081 176.911 286.242 177.105C286.598 177.526 287.051 178.14 287.6 178.949C288.117 179.757 288.764 180.727 289.314 181.891C289.863 183.055 290.413 184.349 290.704 185.804C291.027 187.259 291.124 188.65 291.059 189.943C291.027 190.267 290.995 190.558 290.962 190.881C290.93 191.172 290.865 191.463 290.833 191.754C290.768 192.304 290.607 192.821 290.477 193.306C290.445 193.436 290.413 193.533 290.38 193.662C290.348 193.759 290.316 193.888 290.251 193.985L290.057 194.567C289.928 194.923 289.799 195.214 289.669 195.473C289.572 195.699 289.475 195.893 289.411 196.023C289.411 196.12 289.378 196.184 289.378 196.184ZM274.281 193.791C274.281 193.759 274.604 193.953 275.218 193.888C275.833 193.824 276.705 193.436 277.32 192.498C277.966 191.592 278.322 190.299 278.775 188.908C279.195 187.518 279.518 185.933 279.744 184.252C280.197 180.889 279.971 177.817 279.647 175.618C279.486 174.518 279.292 173.645 279.13 173.031C279.065 172.74 279.001 172.513 278.968 172.352C278.936 172.19 278.904 172.093 278.936 172.093C278.968 172.093 278.968 172.158 279.001 172.319C279.065 172.481 279.13 172.708 279.195 172.999C279.356 173.613 279.55 174.486 279.744 175.586C280.1 177.784 280.326 180.889 279.906 184.252C279.68 185.933 279.356 187.518 278.936 188.941C278.484 190.331 278.096 191.625 277.449 192.563C277.126 193.015 276.738 193.371 276.35 193.597C275.962 193.824 275.574 193.921 275.251 193.953C274.927 193.985 274.701 193.953 274.539 193.888C274.345 193.824 274.281 193.791 274.281 193.791ZM271.824 171.996C271.824 171.996 271.759 172.125 271.565 172.352C271.468 172.481 271.371 172.61 271.242 172.772C271.113 172.934 270.951 173.096 270.757 173.257C270.563 173.419 270.369 173.613 270.11 173.807C269.884 174.001 269.593 174.163 269.335 174.357C268.753 174.712 268.074 175.036 267.33 175.294C266.587 175.553 265.843 175.683 265.164 175.747C264.809 175.78 264.485 175.812 264.194 175.78C263.903 175.78 263.612 175.747 263.354 175.715C263.095 175.683 262.869 175.65 262.675 175.618C262.481 175.586 262.287 175.553 262.158 175.489C261.867 175.424 261.737 175.359 261.737 175.359C261.737 175.327 262.352 175.521 263.354 175.618C263.612 175.65 263.871 175.65 264.194 175.65C264.485 175.65 264.809 175.618 265.132 175.586C265.811 175.521 266.522 175.359 267.266 175.133C268.009 174.874 268.656 174.551 269.238 174.227C269.529 174.033 269.787 173.872 270.013 173.678C270.272 173.516 270.466 173.322 270.66 173.16C271.436 172.513 271.792 171.996 271.824 171.996ZM275.897 168.471V168.827C275.897 169.053 275.865 169.377 275.768 169.765C275.703 170.153 275.574 170.606 275.412 171.123C275.251 171.608 275.024 172.158 274.733 172.675C274.442 173.193 274.119 173.678 273.796 174.098C273.473 174.518 273.149 174.842 272.858 175.133C272.567 175.392 272.309 175.618 272.147 175.747L271.856 175.941C271.824 175.909 272.212 175.618 272.761 175.068C273.052 174.777 273.343 174.454 273.667 174.033C273.99 173.613 274.281 173.16 274.572 172.61C274.863 172.093 275.089 171.576 275.251 171.091C275.412 170.606 275.542 170.153 275.639 169.765C275.833 168.956 275.865 168.471 275.897 168.471ZM269.205 188.294C269.205 188.294 269.205 188.326 269.173 188.359L269.011 188.52C268.882 188.682 268.688 188.876 268.429 189.102L266.263 191.269C264.388 193.112 261.834 195.635 258.989 198.448L258.957 198.48L258.892 198.448C258.731 198.351 258.569 198.254 258.408 198.189C254.819 196.12 251.586 194.244 249.226 192.886C248.062 192.207 247.125 191.657 246.446 191.269C246.123 191.075 245.864 190.946 245.702 190.816C245.638 190.784 245.573 190.719 245.508 190.687L245.702 190.784C245.896 190.881 246.155 191.043 246.478 191.204C247.157 191.592 248.095 192.11 249.291 192.789C251.651 194.147 254.916 195.99 258.504 198.06C258.666 198.157 258.828 198.254 258.989 198.319H258.892C261.77 195.505 264.324 192.983 266.199 191.172C267.136 190.267 267.88 189.555 268.429 189.038C268.688 188.811 268.882 188.617 269.044 188.456C269.108 188.391 269.173 188.359 269.205 188.294ZM257.987 181.083V181.18C257.987 181.245 257.987 181.374 257.923 181.503C257.826 181.762 257.535 182.085 257.05 182.247C256.565 182.409 255.918 182.247 255.369 181.924C254.819 181.568 254.269 181.148 253.688 180.695C252.524 179.789 251.457 178.981 250.681 178.399C250.325 178.108 250.034 177.881 249.776 177.687C249.582 177.526 249.452 177.429 249.452 177.396C249.452 177.396 249.582 177.461 249.808 177.623C250.067 177.817 250.358 178.011 250.746 178.302C251.522 178.884 252.588 179.66 253.785 180.565C254.366 181.018 254.916 181.471 255.466 181.794C255.983 182.118 256.565 182.279 257.017 182.15C257.47 182.021 257.761 181.73 257.89 181.503C257.987 181.245 257.955 181.083 257.987 181.083ZM262.675 176.847C262.675 176.879 262.352 177.008 261.802 177.299C261.252 177.558 260.509 177.978 259.765 178.464C258.989 178.981 258.343 179.498 257.89 179.886C257.438 180.274 257.147 180.533 257.147 180.533C257.147 180.533 257.373 180.242 257.826 179.822C258.278 179.401 258.925 178.852 259.701 178.334C260.477 177.817 261.22 177.429 261.802 177.202C262.319 176.944 262.675 176.814 262.675 176.847Z" fill="white"/>
<path opacity="0.3" d="M273.699 166.628C272.018 170.994 271.694 175.488 272.276 180.145C272.406 181.115 272.891 182.473 273.246 183.346C273.634 184.252 274.248 185.06 275.154 185.481C275.962 185.836 277.029 185.772 277.578 185.093C277.966 184.608 278.031 183.928 277.966 183.282C277.837 181.665 277.093 180.145 276.479 178.658C274.927 174.842 273.957 170.767 273.634 166.628M284.949 175.359C286.63 176.685 287.794 178.625 288.214 180.727C288.311 181.277 288.376 181.891 288.699 182.376C288.99 182.861 289.637 183.217 290.154 182.958C290.801 182.667 290.801 181.762 290.671 181.083C289.992 177.978 287.503 175.359 284.432 174.454" fill="black"/>
<path d="M258.343 211.771C258.311 211.803 254.27 209.54 249.291 206.694C244.312 203.848 240.304 201.52 240.336 201.488C240.368 201.455 244.409 203.719 249.388 206.565C254.334 209.378 258.343 211.739 258.343 211.771Z" fill="white"/>
<path d="M264.679 210.477C264.679 210.477 264.582 210.574 264.356 210.736C264.13 210.898 263.806 211.124 263.451 211.383C262.707 211.933 261.64 212.644 260.477 213.452C260.153 213.679 259.862 213.873 259.571 214.067L259.539 214.099L259.507 214.067C258.505 213.517 257.599 213 256.985 212.644C256.694 212.482 256.468 212.321 256.242 212.224C256.08 212.127 255.983 212.062 255.983 212.062C255.983 212.062 256.08 212.094 256.274 212.191C256.468 212.288 256.726 212.418 257.017 212.579C257.664 212.903 258.537 213.388 259.571 213.938H259.474C259.765 213.743 260.056 213.517 260.38 213.323C261.543 212.515 262.61 211.803 263.386 211.286C263.742 211.059 264.065 210.833 264.324 210.671C264.55 210.542 264.679 210.477 264.679 210.477Z" fill="white"/>
<path opacity="0.3" d="M271.921 207.567C270.789 206.274 268.85 205.95 267.169 206.338C265.487 206.726 264 207.664 262.513 208.537C261.026 209.41 259.474 210.283 257.761 210.477C255.757 210.704 253.785 209.992 251.812 209.604C249.84 209.216 247.545 209.216 246.09 210.607C246.09 210.607 252.394 212.741 259.927 211.577C265.487 210.671 271.921 207.567 271.921 207.567Z" fill="black"/>
<path d="M248.353 179.434C248.353 179.434 248.159 179.434 247.804 179.369C247.642 179.337 247.416 179.304 247.189 179.272C246.931 179.24 246.672 179.175 246.349 179.11C245.735 178.981 245.023 178.754 244.247 178.496C243.472 178.205 242.631 177.849 241.791 177.429C240.95 176.976 240.174 176.523 239.495 176.038C238.816 175.553 238.234 175.1 237.782 174.68C237.555 174.486 237.329 174.292 237.168 174.098C236.974 173.936 236.844 173.775 236.715 173.645C236.489 173.387 236.359 173.257 236.359 173.225C236.359 173.225 236.521 173.354 236.78 173.581C236.909 173.71 237.071 173.839 237.232 174.001C237.426 174.163 237.62 174.357 237.879 174.551C238.364 174.939 238.946 175.391 239.624 175.876C240.303 176.329 241.079 176.814 241.92 177.235C242.76 177.655 243.601 178.011 244.377 178.302C245.153 178.593 245.864 178.787 246.446 178.949C246.737 179.046 247.028 179.078 247.254 179.143C247.48 179.207 247.707 179.24 247.868 179.272L248.353 179.434ZM229.344 192.368C229.344 192.368 229.312 192.304 229.279 192.207C229.247 192.077 229.215 191.916 229.182 191.754C229.15 191.657 229.118 191.528 229.118 191.431C229.085 191.301 229.085 191.172 229.053 191.01C229.021 190.719 228.956 190.396 228.924 190.008C228.924 189.814 228.891 189.62 228.891 189.426V188.779C228.891 188.326 228.924 187.874 228.956 187.389C229.053 186.418 229.279 185.351 229.603 184.252C229.958 183.185 230.411 182.182 230.896 181.341C231.154 180.921 231.381 180.533 231.672 180.177C231.801 180.016 231.93 179.822 232.06 179.66C232.189 179.498 232.318 179.369 232.448 179.207C232.674 178.916 232.932 178.69 233.126 178.463L233.417 178.172C233.514 178.075 233.611 178.011 233.676 177.946C233.838 177.817 233.935 177.72 234.032 177.623C234.129 177.558 234.161 177.526 234.161 177.526C234.161 177.526 234.129 177.558 234.064 177.655C233.967 177.752 233.87 177.849 233.708 177.978C233.644 178.043 233.547 178.14 233.45 178.205C233.353 178.302 233.288 178.399 233.159 178.496C232.965 178.722 232.739 178.949 232.512 179.24C232.383 179.369 232.286 179.531 232.157 179.692C232.027 179.854 231.93 180.016 231.801 180.21C231.542 180.565 231.316 180.953 231.057 181.374C230.572 182.215 230.12 183.217 229.797 184.284C229.441 185.351 229.247 186.418 229.118 187.389C229.085 187.874 229.021 188.326 229.021 188.779V189.393C229.021 189.587 229.053 189.781 229.053 189.976C229.053 190.331 229.118 190.687 229.15 190.978C229.182 191.14 229.182 191.269 229.215 191.398C229.247 191.528 229.247 191.625 229.279 191.722C229.312 191.916 229.344 192.077 229.376 192.207C229.344 192.304 229.344 192.368 229.344 192.368ZM236.683 171.446C236.683 171.446 236.553 171.382 236.327 171.188C236.068 170.994 235.745 170.767 235.357 170.476C234.517 169.862 233.417 169.053 232.189 168.148C230.928 167.242 229.797 166.402 228.988 165.82C228.568 165.529 228.245 165.27 228.051 165.108C227.825 164.946 227.695 164.817 227.728 164.817C227.728 164.817 227.857 164.882 228.116 165.043C228.374 165.238 228.697 165.464 229.085 165.723C229.926 166.305 231.057 167.113 232.286 168.019C233.547 168.924 234.646 169.765 235.454 170.411C235.842 170.735 236.165 170.994 236.392 171.155C236.586 171.317 236.683 171.414 236.683 171.446Z" fill="white"/>
<path d="M271.339 106.254C271.468 109.585 275.897 111.59 275.833 114.921C275.8 116.344 274.927 117.637 274.766 119.028C274.539 120.935 275.606 122.714 275.994 124.59C276.802 128.47 274.572 132.545 271.21 134.646C267.88 136.748 263.677 137.169 259.765 136.619M244.603 105.446C244.733 107.224 243.569 108.809 242.373 110.167C241.176 111.493 239.883 112.883 239.625 114.662C239.172 117.799 242.243 120.709 241.597 123.813C241.273 125.463 239.883 126.821 239.657 128.502C239.431 130.119 240.303 131.704 241.37 132.965C242.437 134.194 243.698 134.032 244.668 135.358C245.67 136.781 247.286 138.204 248.806 139.044C252.233 140.92 256.371 138.204 258.02 137.719" fill="#283252"/>
<path d="M271.986 108.162C272.018 106.545 270.531 105.284 269.044 104.702C267.524 104.12 265.875 103.894 264.518 102.988C263.322 102.18 262.546 100.951 261.511 99.9163C259.054 97.4263 255.207 96.3915 251.813 97.297C248.418 98.2348 245.638 101.08 244.765 104.476C244.183 106.772 244.571 109.488 246.381 111.04C248.483 112.819 251.619 112.431 254.302 111.881C256.985 111.331 260.056 110.782 262.319 112.366C263.677 113.336 264.453 114.888 265.294 116.311C266.134 117.734 267.169 119.222 268.753 119.771C270.337 120.321 272.471 119.383 272.503 117.734" fill="#283252"/>
<path d="M250.519 145.803C250.487 142.084 250.487 138.495 250.487 138.495C250.487 138.495 244.603 137.492 243.407 129.796C242.793 125.98 243.019 119.707 243.342 114.565C243.633 109.941 246.704 104.282 251.295 104.799L265.649 108.453C267.039 108.615 268.106 109.811 268.074 111.202L266.748 146.029C266.587 150.459 262.901 153.919 258.472 153.822C254.075 153.79 250.552 150.201 250.519 145.803Z" fill="#FFE7C5"/>
<path d="M245.767 118.995C245.735 119.513 246.187 119.965 246.705 119.998C247.254 120.03 247.707 119.642 247.739 119.125C247.771 118.607 247.319 118.155 246.802 118.122C246.22 118.09 245.767 118.478 245.767 118.995ZM244.668 117.864C244.797 117.993 245.541 117.443 246.608 117.443C247.674 117.443 248.45 117.993 248.547 117.864C248.612 117.799 248.483 117.572 248.127 117.314C247.804 117.055 247.222 116.829 246.575 116.829C245.929 116.829 245.347 117.087 245.023 117.314C244.7 117.572 244.603 117.799 244.668 117.864ZM256.047 119.254C256.015 119.771 256.468 120.224 256.985 120.256C257.535 120.289 257.987 119.901 258.02 119.383C258.052 118.866 257.599 118.413 257.082 118.381C256.532 118.349 256.08 118.737 256.047 119.254ZM255.078 118.09C255.207 118.219 255.951 117.67 257.017 117.67C258.084 117.67 258.86 118.219 258.957 118.09C259.022 118.025 258.892 117.799 258.537 117.54C258.214 117.281 257.632 117.055 256.985 117.055C256.338 117.055 255.757 117.314 255.433 117.54C255.142 117.799 255.045 118.025 255.078 118.09ZM251.231 125.948C251.231 125.883 250.584 125.786 249.517 125.624C249.258 125.592 249 125.527 248.935 125.366C248.871 125.172 249 124.881 249.129 124.557C249.388 123.911 249.646 123.199 249.937 122.488C251.069 119.545 251.877 117.152 251.748 117.087C251.618 117.055 250.616 119.383 249.517 122.326C249.258 123.037 249 123.749 248.741 124.396C248.644 124.719 248.45 125.042 248.612 125.463C248.677 125.657 248.871 125.818 249.065 125.851C249.226 125.916 249.388 125.916 249.517 125.916C250.552 126.013 251.231 126.013 251.231 125.948Z" fill="#283252"/>
<path d="M250.455 138.495C250.455 138.495 255.627 138.85 260.767 135.778C260.67 135.811 257.922 141.114 250.552 140.306L250.455 138.495Z" fill="#ED9A37"/>
<path d="M254.884 112.819C254.916 113.11 255.983 113.272 257.114 113.757C258.278 114.209 259.151 114.824 259.377 114.597C259.474 114.5 259.377 114.177 259.054 113.821C258.731 113.433 258.181 113.013 257.502 112.754C256.791 112.495 256.112 112.431 255.627 112.463C255.142 112.528 254.884 112.689 254.884 112.819ZM244.894 114.856C245.121 115.05 245.799 114.662 246.64 114.468C247.481 114.242 248.256 114.306 248.386 114.015C248.45 113.886 248.256 113.66 247.901 113.498C247.545 113.336 246.963 113.272 246.381 113.401C245.832 113.466 245.444 113.627 245.088 114.177C244.83 114.5 244.765 114.759 244.894 114.856Z" fill="#283252"/>
<path d="M268.882 134.226C266.781 134.647 266.587 133.579 265.003 132.092C263.418 130.637 262.61 128.373 262.869 126.239C263.095 124.363 264.13 122.423 263.483 120.644C262.61 118.284 259.313 117.54 258.44 115.179C257.923 113.821 258.375 112.204 257.793 110.846C257.244 109.585 255.918 108.841 254.625 108.389C253.332 107.936 251.942 107.613 250.875 106.739C249.776 105.899 249.097 104.314 249.808 103.118C255.53 103.797 261.188 105.187 266.619 107.192C267.88 107.645 269.205 108.227 269.949 109.326C270.725 110.523 270.692 112.043 270.628 113.433C270.304 120.353 269.981 127.241 269.658 134.161M273.699 118.543C273.958 116.02 275.994 113.757 278.516 113.304C281.005 112.851 283.753 114.209 284.885 116.505C285.952 118.672 285.596 121.324 284.594 123.522C283.398 126.142 280.973 128.535 278.096 128.405C275.38 128.276 273.214 125.915 272.438 123.328C271.662 120.741 271.986 117.96 272.309 115.276" fill="#283252"/>
<path d="M275.218 129.052C275.218 129.052 275.412 128.923 275.606 128.599C275.833 128.276 276.059 127.759 276.188 127.047C276.285 126.368 276.285 125.527 276.124 124.622C275.962 123.716 275.671 122.779 275.445 121.776C275.218 120.774 275.121 119.804 275.283 118.931C275.445 118.09 275.833 117.346 276.027 116.667C276.221 115.988 276.188 115.406 276.059 115.018C275.93 114.63 275.768 114.468 275.768 114.5C275.736 114.5 275.865 114.694 275.93 115.05C275.994 115.406 275.994 115.956 275.768 116.602C275.574 117.249 275.154 117.96 274.96 118.866C274.766 119.771 274.863 120.806 275.089 121.841C275.315 122.876 275.639 123.813 275.8 124.687C275.962 125.56 276.027 126.368 275.93 127.015C275.8 128.405 275.154 129.02 275.218 129.052Z" fill="#455A64"/>
<path d="M275.315 119.836C275.283 119.868 275.639 120.386 276.479 121C277.32 121.582 278.678 122.197 280.262 122.229C281.846 122.261 283.236 121.679 284.076 121.129C284.949 120.547 285.337 120.03 285.305 120.03C285.273 119.998 284.82 120.45 283.947 120.935C283.107 121.421 281.781 121.938 280.262 121.906C278.742 121.873 277.449 121.324 276.609 120.806C275.8 120.256 275.38 119.804 275.315 119.836ZM275.703 121.032C275.671 121.032 275.865 121.55 276.35 122.229C276.835 122.908 277.675 123.781 278.807 124.46C279.938 125.139 281.102 125.463 281.943 125.592C282.783 125.689 283.301 125.624 283.301 125.592C283.301 125.527 282.783 125.527 281.975 125.333C281.167 125.172 280.068 124.816 279.001 124.169C277.934 123.522 277.093 122.714 276.576 122.067C276.027 121.453 275.768 121 275.703 121.032ZM273.764 131.639L273.861 131.542C273.893 131.477 273.99 131.38 274.087 131.219C274.249 130.928 274.475 130.475 274.604 129.861C274.733 129.246 274.733 128.438 274.475 127.597C274.249 126.724 273.634 125.818 272.697 125.204C271.792 124.557 270.595 124.105 269.852 123.102C269.464 122.617 269.302 121.938 269.432 121.291C269.529 120.644 269.852 119.998 270.111 119.286C270.692 117.896 270.692 116.182 270.014 114.694C269.658 113.951 269.141 113.272 268.462 112.754C267.783 112.237 266.942 111.978 266.102 111.784C265.261 111.59 264.453 111.493 263.677 111.267C262.901 111.04 262.158 110.685 261.64 110.167C261.091 109.617 260.865 108.906 260.768 108.162C260.671 107.418 260.606 106.642 260.412 105.931C260.024 104.476 259.313 103.215 258.343 102.277C257.373 101.339 256.209 100.822 255.078 100.66C253.946 100.498 252.912 100.692 252.103 101.113C251.295 101.533 250.746 102.083 250.39 102.6C250.034 103.118 249.873 103.603 249.776 103.894C249.711 104.217 249.711 104.379 249.711 104.379C249.776 104.411 249.776 103.667 250.487 102.665C250.843 102.18 251.392 101.63 252.168 101.274C252.944 100.886 253.946 100.725 255.013 100.886C256.08 101.048 257.211 101.598 258.117 102.471C259.022 103.344 259.733 104.605 260.089 105.996C260.283 106.707 260.315 107.418 260.444 108.195C260.541 108.971 260.8 109.811 261.414 110.394C261.996 111.008 262.804 111.364 263.58 111.59C264.388 111.849 265.229 111.946 266.037 112.14C266.845 112.334 267.654 112.592 268.268 113.045C268.914 113.498 269.399 114.145 269.723 114.856C270.369 116.279 270.401 117.863 269.82 119.189C269.561 119.868 269.27 120.515 269.141 121.259C269.011 121.97 269.205 122.746 269.626 123.264C270.466 124.363 271.695 124.784 272.567 125.398C273.473 125.98 274.055 126.853 274.313 127.662C274.572 128.47 274.572 129.246 274.475 129.861C274.249 131.089 273.731 131.607 273.764 131.639Z" fill="#455A64"/>
<path d="M273.246 110.167C273.246 110.167 273.311 110.07 273.343 109.811C273.375 109.585 273.343 109.197 273.085 108.777C272.858 108.389 272.406 107.968 271.791 107.71C271.177 107.483 270.369 107.483 269.593 107.645C268.785 107.807 267.944 108.13 267.039 108.292C266.134 108.453 265.067 108.486 264.259 107.839C263.451 107.224 263.03 106.125 262.61 105.058C262.19 103.958 261.608 102.859 260.832 101.889C259.28 99.9486 257.147 98.5904 255.013 98.1377C253.946 97.9113 252.879 97.9437 251.942 98.2024C251.004 98.4934 250.228 99.0108 249.679 99.6576C249.129 100.304 248.87 101.048 248.838 101.695C248.773 102.342 248.903 102.924 249.097 103.344C249.258 103.764 249.517 104.055 249.679 104.217C249.84 104.379 249.97 104.443 249.97 104.443C250.002 104.411 249.549 104.12 249.226 103.279C249.064 102.859 248.967 102.309 249.032 101.695C249.097 101.08 249.355 100.369 249.873 99.7869C250.39 99.2048 251.133 98.7198 252.006 98.4611C252.879 98.2024 253.914 98.2024 254.916 98.4287C256.953 98.9138 259.022 100.207 260.541 102.115C261.317 103.053 261.867 104.12 262.287 105.187C262.707 106.254 263.127 107.386 264.065 108.098C264.517 108.453 265.067 108.615 265.584 108.68C266.102 108.744 266.619 108.68 267.104 108.583C268.041 108.389 268.882 108.065 269.658 107.904C270.434 107.742 271.177 107.71 271.759 107.904C272.341 108.098 272.761 108.486 272.988 108.874C273.246 109.229 273.279 109.585 273.279 109.811C273.279 110.038 273.246 110.167 273.246 110.167ZM275.671 130.087C275.671 130.087 275.638 130.216 275.509 130.443C275.38 130.669 275.186 130.992 274.927 131.38C274.378 132.124 273.44 133.03 272.147 133.644C270.854 134.258 269.528 134.388 268.623 134.355C268.171 134.323 267.783 134.291 267.524 134.226L267.136 134.129C267.136 134.097 267.686 134.226 268.623 134.258C269.528 134.258 270.822 134.097 272.082 133.515C273.343 132.933 274.281 132.027 274.863 131.316C275.412 130.572 275.638 130.055 275.671 130.087Z" fill="#455A64"/>
<path d="M251.489 133.224L254.916 138.204L255.562 141.082C255.562 141.082 255.692 140.176 255.853 139.303C256.047 138.43 255.853 135.811 255.853 135.811L253.332 132.06C253.332 132.06 251.877 129.99 253.106 128.761L255.562 131.186C255.562 131.186 253.493 128.276 254.916 127.209L256.92 128.923C256.92 128.923 256.338 128.244 257.114 127.694L262.319 132.706L262.966 141.082L262.675 149.942L267.847 156.733L260.379 164.106C260.379 164.106 253.364 152.658 252.944 150.912C252.524 149.166 252.912 139.562 252.912 139.562C252.912 139.562 250.778 136.49 250.81 135.132C250.875 133.773 251.489 133.224 251.489 133.224Z" fill="#FFE7C5"/>
<path d="M257.405 158.867L257.341 158.802C257.308 158.738 257.244 158.673 257.179 158.576C257.05 158.382 256.856 158.059 256.597 157.671C256.08 156.862 255.336 155.698 254.431 154.146C253.978 153.37 253.493 152.497 253.073 151.494C252.847 150.977 252.782 150.395 252.75 149.813C252.718 149.231 252.685 148.616 252.685 148.002C252.653 145.479 252.718 142.634 252.815 139.529L252.847 139.626C252.233 138.721 251.618 137.751 251.134 136.651C251.004 136.393 250.907 136.102 250.81 135.811C250.778 135.649 250.746 135.52 250.713 135.358L250.681 135.099V134.873C250.713 134.549 250.746 134.258 250.875 133.935C250.972 133.612 251.134 133.353 251.36 133.062L251.489 132.933L251.586 133.094C252.685 134.679 253.849 136.36 255.045 138.074L255.078 138.107V138.139C255.272 139.044 255.498 140.014 255.756 141.017H255.433C255.498 140.597 255.563 140.176 255.66 139.756C255.692 139.529 255.724 139.335 255.756 139.109C255.789 138.915 255.789 138.689 255.821 138.462C255.853 137.589 255.789 136.684 255.756 135.778L255.789 135.875C255.304 135.132 254.787 134.388 254.269 133.612L253.493 132.448C253.364 132.254 253.235 132.06 253.106 131.833C252.976 131.607 252.879 131.413 252.782 131.186C252.621 130.766 252.491 130.313 252.524 129.861C252.524 129.408 252.718 128.923 253.073 128.599L253.203 128.47L253.332 128.599C254.172 129.408 254.981 130.216 255.789 131.025L255.53 131.251C255.11 130.604 254.754 129.958 254.496 129.246C254.399 128.89 254.302 128.502 254.334 128.114C254.366 127.726 254.56 127.306 254.884 127.08L254.981 127.015L255.078 127.112C255.789 127.759 256.468 128.373 257.147 128.987L256.92 129.214C256.759 128.955 256.662 128.696 256.694 128.405C256.694 128.114 256.888 127.823 257.114 127.662L257.211 127.597L257.308 127.694C259.119 129.408 260.832 131.057 262.513 132.642L262.545 132.674V132.739C262.772 135.746 262.966 138.559 263.16 141.114C263.03 144.509 262.933 147.484 262.836 149.942L262.804 149.877C264.356 151.979 265.584 153.661 266.457 154.793C266.878 155.375 267.201 155.795 267.427 156.118C267.524 156.28 267.621 156.377 267.653 156.474C267.718 156.539 267.718 156.603 267.718 156.603L267.621 156.506C267.556 156.442 267.459 156.312 267.362 156.183C267.136 155.892 266.813 155.472 266.36 154.89C265.487 153.758 264.227 152.109 262.642 150.039L262.61 150.007V149.974C262.675 147.484 262.772 144.542 262.836 141.114C262.642 138.559 262.416 135.746 262.19 132.739L262.222 132.836C260.573 131.283 258.828 129.634 257.017 127.92H257.211C257.05 128.05 256.92 128.211 256.92 128.405C256.92 128.599 256.985 128.826 257.082 129.02L257.729 130.022L256.856 129.246C256.177 128.632 255.498 128.017 254.787 127.371H254.981C254.722 127.565 254.593 127.856 254.56 128.179C254.528 128.502 254.593 128.858 254.69 129.181C254.916 129.861 255.272 130.507 255.66 131.089L255.401 131.316C254.593 130.507 253.784 129.699 252.944 128.89H253.17C252.879 129.149 252.75 129.537 252.718 129.925C252.718 130.313 252.782 130.734 252.944 131.122C253.041 131.348 253.138 131.542 253.235 131.736C253.332 131.93 253.493 132.124 253.623 132.318L254.399 133.482C254.916 134.258 255.433 135.002 255.918 135.746L255.95 135.778V135.811C256.015 136.716 256.047 137.622 256.015 138.527C256.015 138.753 255.983 138.98 255.95 139.206C255.918 139.432 255.886 139.626 255.853 139.853C255.789 140.273 255.724 140.694 255.627 141.114L255.498 141.922L255.304 141.114C255.078 140.111 254.851 139.141 254.657 138.236L254.69 138.301C253.493 136.554 252.362 134.905 251.263 133.288L251.489 133.321C251.327 133.515 251.166 133.773 251.069 134.064C250.972 134.355 250.907 134.646 250.907 134.938C250.843 135.52 251.069 136.069 251.295 136.587C251.78 137.654 252.362 138.624 252.976 139.529L253.009 139.562V139.594C252.879 142.698 252.815 145.544 252.815 148.066C252.815 148.681 252.847 149.295 252.847 149.877C252.879 150.459 252.912 151.009 253.138 151.494C253.526 152.497 254.043 153.337 254.463 154.146C255.336 155.698 256.08 156.895 256.565 157.703C256.823 158.091 256.985 158.414 257.114 158.641C257.179 158.738 257.211 158.835 257.244 158.867C257.373 158.835 257.405 158.867 257.405 158.867Z" fill="#ED9A37"/>
<path d="M258.925 139.82C258.892 139.82 258.795 139.271 258.731 138.398C258.666 137.492 258.569 136.263 258.504 134.905C258.504 134.776 258.504 134.646 258.472 134.517L258.504 134.614C257.664 133.676 256.888 132.803 256.371 132.189C255.853 131.574 255.53 131.154 255.563 131.122C255.595 131.089 255.95 131.445 256.532 132.027C257.114 132.609 257.89 133.45 258.731 134.388L258.763 134.42V134.485C258.763 134.614 258.763 134.743 258.795 134.873C258.86 136.231 258.925 137.46 258.925 138.365C258.989 139.238 258.957 139.82 258.925 139.82ZM260.897 137.169C260.864 137.169 260.8 136.684 260.703 135.843C260.638 135.035 260.541 133.903 260.476 132.609L260.541 132.706L260.25 132.415C259.28 131.445 258.407 130.572 257.793 129.925C257.179 129.278 256.791 128.858 256.823 128.826C256.856 128.793 257.276 129.149 257.955 129.764C258.634 130.378 259.507 131.219 260.509 132.189L260.8 132.48L260.832 132.512V132.577C260.897 133.838 260.929 135.002 260.961 135.811C260.961 136.684 260.929 137.169 260.897 137.169Z" fill="#ED9A37"/>
<path d="M244.894 145.221C244.894 145.221 244.345 141.47 243.827 140.144C243.31 138.818 241.888 137.136 241.888 137.136C241.888 137.136 242.664 136.263 243.924 137.007C245.541 137.977 245.476 140.144 245.476 140.144L244.894 145.221Z" fill="#FFE7C5"/>
<path d="M245.314 140.467C245.314 140.467 244.442 134.258 244.474 133.838C244.539 133.418 246.834 127.985 246.834 127.985C246.834 127.985 248.192 127.856 248.03 129.181C247.868 130.475 247.384 131.898 247.384 131.898L251.037 127.629C251.037 127.629 252.394 127.92 251.877 129.278C251.877 129.278 253.106 129.117 252.75 131.154L251.101 134.291L251.295 137.557L253.979 134.032C253.979 134.032 255.272 134.84 254.625 136.134C253.979 137.427 252.621 140.435 252.621 140.435L253.009 145.091C253.009 145.091 253.688 147.678 253.009 149.037C252.33 150.395 251.683 151.624 251.683 151.624L250.455 162.974L242.437 157.929L244.765 146.547L245.314 140.467Z" fill="#FFE7C5"/>
<path d="M250.455 163.039V162.845C250.455 162.715 250.487 162.521 250.487 162.263C250.552 161.745 250.616 161.001 250.713 160.031C250.907 158.091 251.198 155.245 251.554 151.721V151.656C251.78 151.203 252.039 150.718 252.265 150.233C252.394 149.974 252.524 149.748 252.653 149.489C252.782 149.231 252.912 148.972 253.009 148.713C253.17 148.196 253.203 147.581 253.138 146.999C253.106 146.417 253.009 145.771 252.847 145.188C252.718 143.701 252.588 142.149 252.427 140.532V140.467C252.912 139.432 253.397 138.398 253.882 137.298C254.011 137.039 254.14 136.748 254.269 136.49C254.399 136.199 254.528 135.94 254.56 135.681C254.657 135.132 254.302 134.582 253.817 134.258L254.043 134.226C253.203 135.358 252.297 136.554 251.36 137.751L251.101 138.107L251.069 137.654C251.004 136.619 250.94 135.52 250.875 134.388V134.355L250.907 134.323C251.425 133.321 251.974 132.254 252.556 131.186L252.524 131.251C252.556 130.928 252.621 130.604 252.556 130.281C252.524 129.958 252.362 129.667 252.071 129.602C252.006 129.57 251.909 129.57 251.845 129.57L251.554 129.602L251.651 129.343C251.78 129.02 251.813 128.696 251.683 128.438C251.554 128.179 251.263 127.985 250.972 127.92L251.134 127.856C249.873 129.311 248.677 130.734 247.48 132.124L246.963 132.739L247.222 131.963C247.48 131.186 247.674 130.41 247.804 129.634C247.836 129.44 247.868 129.246 247.868 129.085C247.868 128.923 247.836 128.729 247.739 128.632C247.577 128.373 247.19 128.276 246.834 128.276L246.963 128.179C246.511 129.279 246.058 130.346 245.605 131.38C245.379 131.898 245.185 132.415 244.959 132.933L244.668 133.709C244.636 133.773 244.636 133.838 244.603 133.903L244.571 133.967V134.064C244.571 134.194 244.571 134.323 244.603 134.453C244.83 136.587 245.12 138.656 245.379 140.564C245.185 142.796 244.991 144.865 244.83 146.708C244.086 150.265 243.472 153.111 243.051 155.051C242.825 156.021 242.664 156.765 242.567 157.283C242.502 157.541 242.47 157.735 242.437 157.865C242.405 157.994 242.373 158.059 242.373 158.059C242.373 158.059 242.373 157.994 242.405 157.865C242.437 157.735 242.47 157.541 242.502 157.283C242.599 156.765 242.761 156.021 242.922 155.019C243.31 153.046 243.892 150.201 244.571 146.644C244.733 144.8 244.894 142.731 245.088 140.5V140.532C244.83 138.624 244.506 136.587 244.28 134.42C244.28 134.291 244.248 134.161 244.248 134V133.87L244.28 133.741C244.312 133.676 244.312 133.612 244.345 133.547L244.636 132.771C244.83 132.254 245.056 131.736 245.282 131.219C245.735 130.184 246.155 129.085 246.608 127.985L246.64 127.888H246.737C246.963 127.888 247.157 127.888 247.383 127.985C247.577 128.05 247.804 128.179 247.933 128.373C248.062 128.567 248.127 128.793 248.127 129.02C248.127 129.246 248.095 129.44 248.062 129.634C247.933 130.443 247.707 131.219 247.48 131.995L247.19 131.833C248.386 130.443 249.614 129.02 250.843 127.565L250.907 127.5L251.004 127.532C251.198 127.597 251.392 127.662 251.554 127.791C251.716 127.888 251.877 128.05 251.974 128.244C252.168 128.632 252.103 129.085 251.974 129.44L251.78 129.214C251.909 129.214 252.039 129.214 252.168 129.246C252.394 129.311 252.588 129.44 252.685 129.634C252.815 129.828 252.879 130.022 252.912 130.216C252.976 130.604 252.944 130.96 252.879 131.316V131.38C252.33 132.448 251.748 133.515 251.231 134.517L251.263 134.42C251.328 135.552 251.392 136.651 251.457 137.686L251.166 137.589C252.103 136.36 253.009 135.164 253.849 134.064L253.946 133.935L254.076 134C254.366 134.194 254.593 134.453 254.754 134.744C254.916 135.035 255.013 135.39 254.948 135.746C254.916 136.102 254.722 136.393 254.625 136.651C254.496 136.91 254.366 137.201 254.237 137.46C253.72 138.559 253.235 139.594 252.75 140.629V140.564C252.879 142.181 253.009 143.766 253.138 145.221V145.188C253.3 145.835 253.397 146.45 253.429 147.064C253.461 147.678 253.461 148.293 253.267 148.875C253.17 149.166 253.009 149.425 252.912 149.683C252.782 149.942 252.653 150.168 252.524 150.427C252.265 150.912 252.039 151.397 251.78 151.85V151.818C251.36 155.342 251.037 158.188 250.81 160.128C250.681 161.098 250.584 161.842 250.552 162.36C250.519 162.618 250.487 162.812 250.487 162.942C250.487 162.974 250.455 163.039 250.455 163.039Z" fill="#ED9A37"/>
<path d="M246.963 138.527C246.866 138.527 246.575 137.007 246.317 135.067C246.252 134.517 246.187 133.967 246.123 133.515V133.45L246.155 133.418C246.834 132.48 247.319 131.866 247.383 131.898C247.448 131.93 247.06 132.609 246.414 133.579L246.446 133.482C246.511 133.935 246.607 134.485 246.672 135.035C246.931 136.975 247.06 138.527 246.963 138.527ZM249.032 137.104C248.967 137.104 248.741 135.811 248.515 133.967V133.903L248.547 133.838C248.774 133.515 249 133.159 249.258 132.803C250.649 130.798 251.812 129.214 251.877 129.246C251.942 129.311 250.907 130.96 249.517 132.965C249.258 133.321 249.032 133.676 248.806 134L248.838 133.903C249.032 135.778 249.097 137.104 249.032 137.104Z" fill="#ED9A37"/>
<path d="M22.5 195.658V173.908L105.683 64.9167H139.197L57.2198 173.908L41.5476 169.075H175.363V195.658H22.5ZM115.086 234.083V195.658L116.05 169.075V135H145.466V234.083H115.086Z" fill="#283252"/>
<path d="M259.09 236.5C245.748 236.5 233.693 233.117 222.923 226.35C212.315 219.583 203.956 209.756 197.848 196.867C191.74 183.817 188.686 168.028 188.686 149.5C188.686 130.972 191.74 115.264 197.848 102.375C203.956 89.325 212.315 79.4167 222.923 72.65C233.693 65.8833 245.748 62.5 259.09 62.5C272.592 62.5 284.647 65.8833 295.256 72.65C305.865 79.4167 314.223 89.325 320.332 102.375C326.6 115.264 329.735 130.972 329.735 149.5C329.735 168.028 326.6 183.817 320.332 196.867C314.223 209.756 305.865 219.583 295.256 226.35C284.647 233.117 272.592 236.5 259.09 236.5ZM259.09 209.192C266.966 209.192 273.797 207.097 279.584 202.908C285.371 198.558 289.871 191.953 293.086 183.092C296.462 174.231 298.149 163.033 298.149 149.5C298.149 135.806 296.462 124.608 293.086 115.908C289.871 107.047 285.371 100.522 279.584 96.3333C273.797 91.9833 266.966 89.8083 259.09 89.8083C251.535 89.8083 244.784 91.9833 238.837 96.3333C233.05 100.522 228.469 107.047 225.093 115.908C221.878 124.608 220.271 135.806 220.271 149.5C220.271 163.033 221.878 174.231 225.093 183.092C228.469 191.953 233.05 198.558 238.837 202.908C244.784 207.097 251.535 209.192 259.09 209.192Z" fill="#283252"/>
<path d="M348.637 195.658V173.908L431.819 64.9167H465.334L383.356 173.908L367.684 169.075H501.5V195.658H348.637ZM441.223 234.083V195.658L442.187 169.075V135H471.602V234.083H441.223Z" fill="#283252"/>
<path d="M76.928 142.451C70.6068 132.777 70.8229 118.618 78.3867 109.864C80.7099 107.162 84.0055 104.784 87.5713 105.108C91.2451 105.432 94.1626 108.567 95.2971 112.079C96.4317 115.592 95.9995 119.375 95.3512 122.996C94.4327 128.076 92.92 133.264 89.4082 136.993C85.8965 140.775 81.4122 144.937 76.928 142.451ZM79.7374 188.764C77.3602 183.198 79.0891 176.173 83.7894 172.336C85.2481 171.147 87.1391 170.228 88.976 170.714C90.8129 171.201 92.0555 173.092 92.3257 174.984C92.5958 176.875 92.0555 178.821 91.3532 180.604C90.4347 183.144 89.1381 185.684 87.031 187.305C84.8159 188.872 81.8444 190.44 79.7374 188.764ZM64.4478 185.414C66.1766 176.821 61.6924 167.364 53.9125 163.311C51.4813 162.068 48.5098 161.311 46.0786 162.554C43.5934 163.797 42.4048 166.823 42.5668 169.634C42.783 172.39 44.0796 174.984 45.5924 177.307C47.6454 180.604 50.1846 183.846 53.6964 185.468C57.2622 187.143 61.9625 188.44 64.4478 185.414ZM65.5823 162.23C68.6078 152.448 63.4753 140.613 54.939 134.993C52.2917 133.264 48.942 132.021 45.9705 133.156C42.945 134.29 41.1621 137.695 41.1081 140.938C41.0001 144.18 42.2427 147.314 43.7014 150.233C45.7004 154.34 48.2937 158.339 52.1836 160.717C56.0196 163.041 62.3407 165.418 65.5823 162.23Z" fill="#15ACC0"/>
<path d="M71.6335 210.003C71.6335 210.003 71.5795 209.84 71.5255 209.516C71.4714 209.138 71.4174 208.706 71.3094 208.165L71.1473 207.192C71.0933 206.814 70.9852 206.436 70.9312 206.004C70.7691 205.193 70.607 204.22 70.3369 203.193C70.2288 202.653 70.0667 202.113 69.9587 201.572C69.7966 201.032 69.6345 200.437 69.4724 199.843C69.1483 198.654 68.662 197.357 68.2298 196.06C67.2033 193.412 65.9607 190.548 64.4479 187.683C62.8812 184.819 61.2063 182.225 59.5855 179.901C58.7211 178.767 57.9647 177.686 57.1003 176.767C56.7221 176.281 56.2899 175.848 55.9117 175.362C55.5335 174.93 55.1553 174.551 54.7771 174.119C54.0748 173.308 53.3724 172.66 52.7781 172.065C52.454 171.795 52.1838 171.471 51.9137 171.255C51.6436 171.039 51.3734 170.823 51.1573 170.606C50.7251 170.228 50.4009 169.904 50.1308 169.688L49.8066 169.363C49.8066 169.363 49.9687 169.471 50.1848 169.634C50.455 169.85 50.8332 170.12 51.2654 170.498C51.4815 170.714 51.7516 170.931 52.0217 171.147C52.2919 171.417 52.562 171.687 52.8862 171.957C53.5345 172.552 54.2368 173.2 54.9392 173.957C55.3174 174.335 55.6956 174.768 56.1278 175.2C56.506 175.632 56.8842 176.119 57.3164 176.605C58.1808 177.524 58.9372 178.659 59.8556 179.739C61.5305 182.009 63.2593 184.657 64.8261 187.521C66.3389 190.44 67.5815 193.304 68.608 195.952C69.0402 197.303 69.5265 198.546 69.8506 199.789L70.3369 201.572C70.4449 202.167 70.607 202.707 70.7151 203.193C70.9852 204.22 71.0933 205.193 71.2553 206.058C71.3094 206.49 71.3634 206.868 71.4714 207.246C71.5255 207.625 71.5255 207.949 71.5795 208.219C71.6335 208.76 71.6875 209.246 71.6875 209.57C71.6335 209.84 71.6876 210.003 71.6335 210.003Z" fill="#283252"/>
<path d="M71.4179 211.786V211.57C71.4179 211.408 71.4179 211.245 71.4719 211.029C71.526 210.489 71.58 209.786 71.688 208.868C71.7421 208.381 71.7961 207.895 71.8501 207.3C71.9041 206.706 71.9041 206.112 71.9582 205.409C72.0122 204.058 72.1203 202.545 72.0662 200.87V198.221C72.0662 197.303 71.9582 196.33 71.9041 195.357C71.8501 193.358 71.58 191.25 71.3099 189.034C70.7156 184.603 69.7431 179.793 68.2843 174.822C66.7716 169.904 64.9347 165.31 63.0437 161.257C62.0172 159.258 61.0988 157.366 60.0722 155.637C59.586 154.772 59.0998 153.907 58.6135 153.151C58.1273 152.394 57.641 151.638 57.1548 150.935C56.2904 149.476 55.3179 148.287 54.5615 147.206C54.1833 146.666 53.8051 146.126 53.481 145.693C53.1028 145.261 52.7786 144.829 52.5085 144.45C51.9142 143.748 51.482 143.153 51.1578 142.721C50.9957 142.559 50.8877 142.397 50.8336 142.289C50.7796 142.18 50.7256 142.126 50.7256 142.126L50.8877 142.289C50.9957 142.397 51.1038 142.559 51.2659 142.721C51.59 143.153 52.0763 143.694 52.6706 144.396C52.9947 144.774 53.3189 145.153 53.6971 145.585C54.0753 146.017 54.3994 146.558 54.8316 147.098C55.642 148.179 56.5605 149.368 57.479 150.827C57.9652 151.53 58.4514 152.286 58.9377 153.043C59.4239 153.799 59.9102 154.664 60.3964 155.529C61.4229 157.258 62.3954 159.15 63.4219 161.149C65.3669 165.202 67.2038 169.796 68.7166 174.768C70.1753 179.739 71.0937 184.603 71.688 189.034C71.9041 191.25 72.1743 193.412 72.2283 195.411C72.2823 196.384 72.3364 197.357 72.3364 198.276V200.924C72.3904 202.599 72.2283 204.166 72.1203 205.517C72.0662 206.166 72.0662 206.814 72.0122 207.409C71.9582 208.003 71.9041 208.489 71.7961 208.976C71.688 209.894 71.58 210.597 71.526 211.137C71.4719 211.354 71.4719 211.57 71.4179 211.678C71.4719 211.678 71.4179 211.786 71.4179 211.786Z" fill="#283252"/>
<path d="M87.8959 116.781C87.8959 116.781 87.8959 116.835 87.8418 116.943C87.7878 117.105 87.6798 117.268 87.5717 117.43C87.3016 117.916 86.9234 118.565 86.4912 119.375C86.2751 119.807 86.0049 120.24 85.7348 120.78L84.8704 122.51C84.5462 123.104 84.222 123.752 83.8979 124.455C83.5737 125.158 83.2496 125.914 82.9254 126.671C82.6012 127.481 82.223 128.292 81.8449 129.157C81.5207 130.021 81.1425 130.94 80.8183 131.859C80.6563 132.345 80.4402 132.831 80.2781 133.318C80.116 133.804 79.9539 134.291 79.7918 134.831C79.4677 135.858 79.0895 136.885 78.7113 137.965C77.3606 142.289 76.118 147.152 75.0375 152.286C74.0109 157.42 73.2546 162.392 72.7143 166.878C72.2281 171.417 71.9039 175.47 71.7958 178.929C71.6878 180.658 71.6878 182.225 71.6878 183.576C71.6878 184.927 71.6338 186.116 71.6878 187.089C71.6878 188.008 71.6878 188.764 71.7418 189.305V190.115C71.7418 190.115 71.7418 190.061 71.6878 189.899C71.6878 189.737 71.6878 189.575 71.6338 189.305C71.6338 188.764 71.5797 188.008 71.5257 187.089C71.4717 186.116 71.4717 184.927 71.4717 183.576C71.4717 182.225 71.4717 180.658 71.5257 178.929C71.5797 175.47 71.9039 171.417 72.3361 166.878C72.8764 162.338 73.5787 157.42 74.6052 152.232C75.6858 147.098 76.9824 142.235 78.3331 137.911C78.7113 136.831 79.0355 135.804 79.4136 134.777C79.5757 134.291 79.7378 133.75 79.9539 133.264C80.17 132.777 80.3321 132.291 80.4942 131.805C80.8724 130.886 81.2506 129.967 81.5747 129.103C81.9529 128.238 82.3311 127.427 82.6553 126.617C83.0334 125.86 83.3576 125.104 83.6818 124.401C84.06 123.698 84.3841 123.05 84.7083 122.455C85.0324 121.861 85.3026 121.267 85.5727 120.78C85.8428 120.24 86.167 119.807 86.3831 119.375C86.8694 118.565 87.2475 117.916 87.5177 117.484C87.6257 117.268 87.7338 117.105 87.8418 116.997C87.8418 116.835 87.8959 116.781 87.8959 116.781ZM85.7348 176.173C85.7348 176.173 85.5187 176.605 85.0865 177.362C84.6002 178.118 84.0059 179.199 83.2496 180.55C82.4932 181.901 81.6828 183.576 80.8724 185.468C80.062 187.359 79.2516 189.467 78.5492 191.737C77.8469 194.006 77.3066 196.222 76.9284 198.222C76.5502 200.221 76.2801 202.059 76.118 203.626C75.9559 205.193 75.8479 206.436 75.8479 207.301C75.7938 208.165 75.7398 208.652 75.7398 208.652C75.6858 208.652 75.6858 208.165 75.6858 207.301C75.6858 206.436 75.7398 205.139 75.8479 203.572C75.9559 202.004 76.172 200.167 76.5502 198.114C76.9284 196.06 77.4687 193.844 78.171 191.575C78.8734 189.305 79.6838 187.143 80.5482 185.252C81.4126 183.36 82.2771 181.685 83.0334 180.334C83.7898 178.983 84.4922 177.902 84.9784 177.199C85.4106 176.551 85.7348 176.173 85.7348 176.173Z" fill="#283252"/>
<path d="M59.207 205.625H87.0309L83.6272 234.051H62.6648L59.207 205.625Z" fill="#455A64"/>
<path d="M60.2334 230.971L62.6106 234.051H83.6271L86.0583 231.079L60.2334 230.971Z" fill="#283252"/>
<path d="M85.9502 214.002C85.9502 214.11 80.1693 214.218 73.0918 214.218C65.9603 214.218 60.2334 214.11 60.2334 214.002C60.2334 213.893 66.0143 213.785 73.0918 213.785C80.1693 213.785 85.9502 213.893 85.9502 214.002ZM85.9502 215.893C85.9502 216.001 80.1693 216.109 73.0918 216.109C65.9603 216.109 60.2334 216.001 60.2334 215.893C60.2334 215.785 66.0143 215.677 73.0918 215.677C80.1693 215.677 85.9502 215.785 85.9502 215.893ZM85.572 217.73C85.572 217.839 80.0073 217.947 73.1458 217.947C66.2844 217.947 60.7196 217.839 60.7196 217.73C60.7196 217.622 66.2844 217.514 73.1458 217.514C80.0073 217.514 85.572 217.622 85.572 217.73Z" fill="#FAFAFA"/>
<path d="M63.4757 144.45V144.721C63.4757 144.937 63.4216 145.207 63.4216 145.477C63.3676 146.18 63.2596 147.152 63.1515 148.287C62.8814 150.665 62.5032 153.962 62.125 157.582C62.125 157.745 62.071 157.853 62.071 158.015V158.123H61.9629C58.3971 158.177 55.1555 158.231 52.8324 158.231H49.0505C49.0505 158.231 49.1585 158.231 49.3206 158.177C49.5367 158.177 49.7528 158.177 50.077 158.123C50.7793 158.123 51.6978 158.069 52.8324 158.015C55.1555 157.961 58.3431 157.907 61.9089 157.853L61.7468 157.961C61.7468 157.853 61.8008 157.69 61.8008 157.528C62.233 153.908 62.6112 150.611 62.9354 148.233C63.0975 147.098 63.2055 146.126 63.3136 145.423C63.3676 145.099 63.4216 144.883 63.4216 144.666C63.4216 144.558 63.4757 144.45 63.4757 144.45ZM57.1545 135.966V139.965C57.1005 142.451 57.0465 145.855 56.9384 149.638V150.233H56.7763C53.1025 149.963 49.8068 149.963 47.4297 150.017C46.2411 150.071 45.2686 150.125 44.6203 150.125C44.2961 150.125 44.08 150.125 43.8639 150.179H43.5938C43.5938 150.179 43.7018 150.179 43.8639 150.125C44.026 150.125 44.2961 150.071 44.6203 150.017C45.2686 149.963 46.2411 149.854 47.4297 149.8C49.8068 149.692 53.1565 149.638 56.8303 149.909L56.6683 150.071V149.638C56.7763 145.855 56.8844 142.451 56.9384 139.965C56.9924 138.776 57.0465 137.749 57.0465 137.047C57.0465 136.722 57.1005 136.452 57.1005 136.236C57.1005 136.074 57.1545 135.966 57.1545 135.966Z" fill="#283252"/>
<path d="M49.7524 133.048L49.9144 133.858C50.0225 134.453 50.1846 135.209 50.3467 136.074C50.7248 137.965 51.2651 140.559 52.0755 143.424L52.1836 143.748L51.9134 143.586L51.5893 143.424C48.8339 142.127 46.1326 141.478 44.1876 141.262C43.2151 141.154 42.4047 141.1 41.8644 141.1C41.3242 141.1 41 141.1 41 141.046C41 141.046 41.054 141.046 41.2161 140.992C41.3782 140.992 41.5943 140.938 41.8644 140.938C42.4047 140.938 43.2151 140.938 44.2416 141.046C46.2406 141.208 48.996 141.802 51.7514 143.153L52.0755 143.315L51.8594 143.478C51.049 140.613 50.5087 138.019 50.2386 136.128C50.0765 135.155 49.9685 134.399 49.9144 133.858C49.7524 133.372 49.7524 133.048 49.7524 133.048ZM88.9759 184.819C88.9759 184.873 88.1655 184.765 86.8689 184.711C85.5722 184.657 83.7893 184.657 81.7903 184.873C81.4121 184.927 80.9799 184.981 80.6017 185.035H80.4937V184.927C80.1695 183.252 79.9534 181.739 79.7913 180.712C79.6293 179.631 79.5212 178.983 79.5752 178.983C79.6293 178.983 79.7373 179.631 79.9534 180.658C80.1695 181.739 80.4397 183.198 80.7638 184.873L80.6017 184.765C80.9799 184.711 81.3581 184.657 81.7903 184.603C83.7893 184.387 85.5722 184.441 86.8689 184.495C87.5172 184.549 88.0575 184.603 88.3816 184.657C88.8138 184.765 88.9759 184.819 88.9759 184.819ZM91.6232 179.631C91.6232 179.685 90.8669 179.469 89.5702 179.361C88.3276 179.199 86.5447 179.091 84.6538 179.307C84.3296 179.361 84.0595 179.361 83.7893 179.415H83.6273V179.253C83.4652 177.524 83.3031 176.011 83.195 174.876C83.087 173.795 83.087 173.092 83.087 173.092C83.141 173.092 83.2491 173.741 83.3571 174.822C83.5192 175.902 83.6813 177.47 83.8434 179.199L83.6813 179.091C83.9514 179.037 84.2756 179.037 84.5457 178.983C86.4907 178.767 88.2736 178.929 89.5162 179.091C90.1645 179.199 90.6508 179.307 90.9749 179.415C91.4612 179.523 91.6232 179.577 91.6232 179.631ZM93.5142 130.183C93.5142 130.183 93.4061 130.237 93.244 130.345C93.0279 130.454 92.7578 130.562 92.4336 130.724C91.6773 131.048 90.6508 131.48 89.4081 132.021C86.8148 133.102 83.3031 134.561 79.4672 136.128C79.3051 136.182 79.089 136.29 78.9269 136.344L78.8189 136.398L78.7648 136.29C77.144 132.561 75.6313 129.265 74.5507 126.779C74.0645 125.59 73.6323 124.617 73.3081 123.915C73.2001 123.59 73.092 123.32 72.9839 123.104C72.9299 122.942 72.8759 122.834 72.8759 122.834C72.8759 122.834 72.9299 122.942 73.038 123.104L73.4162 123.861C73.7403 124.563 74.1725 125.536 74.7128 126.725C75.7933 129.157 77.3061 132.507 78.9809 136.182L78.8189 136.128C78.9809 136.074 79.197 135.966 79.3591 135.912C83.2491 134.345 86.7608 132.885 89.3541 131.859C90.5967 131.372 91.6232 130.94 92.3796 130.67C92.7038 130.562 92.9739 130.454 93.19 130.345C93.4061 130.183 93.5142 130.183 93.5142 130.183ZM95.9454 118.186C95.9454 118.186 95.8914 118.24 95.6753 118.348C95.4592 118.456 95.243 118.619 94.9729 118.835C94.3246 119.267 93.4061 119.807 92.2716 120.51C89.9484 121.915 86.7608 123.861 83.195 126.022L83.033 126.13L82.9789 125.968C82.9249 125.806 82.8709 125.698 82.8168 125.536C81.3581 121.537 80.0074 117.97 79.035 115.322C78.5487 114.025 78.1705 112.998 77.9004 112.188C77.7923 111.863 77.6843 111.539 77.6303 111.323C77.5762 111.107 77.5222 110.999 77.5222 110.999C77.5222 110.999 77.5762 111.107 77.6843 111.269C77.7923 111.485 77.9004 111.755 78.0085 112.079C78.3326 112.836 78.7108 113.863 79.197 115.16C80.2236 117.808 81.5742 121.375 83.087 125.374C83.141 125.536 83.195 125.698 83.2491 125.806L83.033 125.752C86.5987 123.644 89.7863 121.699 92.1095 120.294C93.2441 119.645 94.1625 119.105 94.8649 118.673C95.189 118.51 95.4051 118.348 95.6212 118.24C95.8373 118.24 95.9454 118.186 95.9454 118.186Z" fill="#283252"/>
<path d="M95.135 111.755C95.135 111.755 94.9188 111.917 94.5407 112.133C94.1625 112.35 93.5682 112.674 92.9198 113.106C91.5692 113.971 89.6782 115.268 87.8953 117.051L87.5712 117.375L87.6792 116.889C87.7873 116.403 87.8953 115.862 88.0034 115.322C88.4896 112.458 88.1115 109.756 87.6252 107.918C87.3551 107 87.0849 106.243 86.9229 105.757C86.7068 105.27 86.5987 105 86.6527 105C86.6527 105 86.8148 105.27 87.0309 105.757C87.247 106.243 87.5712 106.945 87.8413 107.918C88.3816 109.756 88.8138 112.512 88.3276 115.43C88.2195 115.97 88.1115 116.511 88.0034 116.997L87.7873 116.889C89.6242 115.106 91.5151 113.809 92.9198 112.998C93.6222 112.566 94.2165 112.296 94.5947 112.133C94.9188 111.863 95.135 111.755 95.135 111.755ZM63.4211 174.119C63.4211 174.119 63.3671 174.389 63.3131 174.822C63.205 175.254 63.097 175.956 62.9349 176.767C62.6107 178.442 62.2866 180.766 62.1785 183.36V183.468H62.0705C61.8544 183.468 61.6383 183.468 61.4221 183.522C58.6668 183.684 56.1815 183.846 54.3446 183.901C53.4802 183.955 52.7778 183.955 52.1835 184.009H51.3731C51.3731 184.009 51.6433 183.955 52.1295 183.901C52.6698 183.846 53.4262 183.792 54.2906 183.738C56.0735 183.63 58.6127 183.414 61.3681 183.252C61.5842 183.252 61.8003 183.252 62.0164 183.198L61.9084 183.306C62.0164 180.658 62.3946 178.334 62.7728 176.713C62.9349 175.902 63.097 175.2 63.2591 174.768C63.3131 174.335 63.4211 174.119 63.4211 174.119ZM57.9644 166.283C57.9644 166.283 57.9644 166.553 57.9104 166.986C57.8564 167.526 57.8023 168.174 57.6943 168.985C57.4782 170.66 57.208 172.984 56.8299 175.578V175.686H56.7218C56.4517 175.686 56.1275 175.74 55.8033 175.74C52.9939 175.956 50.4547 176.227 48.6178 176.443C47.7533 176.551 46.997 176.659 46.4567 176.713C45.9164 176.767 45.6463 176.821 45.6463 176.821C45.6463 176.821 45.9164 176.713 46.4567 176.605C46.9429 176.497 47.6993 176.389 48.6178 176.227C50.4547 175.956 52.9939 175.632 55.8574 175.416C56.1815 175.416 56.4517 175.362 56.7758 175.362L56.6678 175.47C57.046 172.876 57.3701 170.552 57.5862 168.877C57.6943 168.066 57.8023 167.418 57.9104 166.932C57.9104 166.499 57.9644 166.283 57.9644 166.283ZM51.5352 162.878C51.5892 162.878 51.4272 163.635 51.2111 164.878C50.995 166.121 50.7788 167.85 50.7788 169.796V169.958H50.6168C50.4547 169.958 50.2926 169.904 50.1305 169.904C48.0775 169.634 46.2406 169.58 44.8899 169.58H42.6748C42.6748 169.58 42.8909 169.525 43.2691 169.471C43.6473 169.417 44.1876 169.363 44.8899 169.363C46.2406 169.309 48.1315 169.363 50.1845 169.58C50.3466 169.58 50.5087 169.634 50.6708 169.634L50.5087 169.796C50.5627 167.85 50.7788 166.067 51.049 164.824C51.157 164.229 51.3191 163.689 51.3731 163.365C51.4812 163.095 51.5352 162.878 51.5352 162.878ZM88.1655 170.714C88.2195 170.768 87.6252 172.011 86.9229 173.525C86.2205 175.092 85.6802 176.335 85.5722 176.281C85.5182 176.281 85.9504 174.93 86.6527 173.362C87.3551 171.903 88.1115 170.714 88.1655 170.714Z" fill="#283252"/>
<path d="M91.6232 174.443C91.6232 174.551 90.1644 174.551 88.4896 175.092C86.7607 175.632 85.5722 176.443 85.5181 176.335C85.4641 176.281 86.6527 175.362 88.3816 174.822C90.1644 174.281 91.6772 174.389 91.6232 174.443Z" fill="#283252"/>
<path d="M238.189 236.703C232.831 226.054 225.566 211.258 217.639 194.914C209.713 178.571 202.448 163.774 197.164 153.064C194.522 147.74 192.393 143.407 190.852 140.435C190.118 138.949 189.531 137.773 189.164 136.968C188.944 136.597 188.871 136.287 188.724 136.039C188.871 136.225 189.017 136.535 189.164 136.906C189.605 137.711 190.192 138.825 190.926 140.311C192.467 143.283 194.668 147.616 197.311 152.94C202.668 163.589 209.934 178.385 217.86 194.729C225.786 211.073 233.051 225.869 238.335 236.579" fill="#E0E0E0"/>
<path d="M189.093 169.222C189.093 169.222 189.386 169.284 189.973 169.47C190.487 169.656 191.294 169.965 192.175 170.337C194.083 171.08 196.579 172.132 199.367 173.37C202.083 174.609 204.578 175.661 206.486 176.528C207.367 176.899 208.027 177.209 208.614 177.456C209.128 177.704 209.422 177.828 209.422 177.828C209.422 177.828 209.128 177.766 208.541 177.58C208.027 177.394 207.22 177.085 206.339 176.713C204.505 175.971 201.936 174.856 199.147 173.618C196.432 172.442 193.936 171.327 192.028 170.523C191.148 170.151 190.487 169.842 189.827 169.594C189.386 169.346 189.093 169.222 189.093 169.222ZM210.376 177.271C210.302 177.209 212.651 172.689 215.733 167.118C218.816 161.546 221.311 157.088 221.458 157.15C221.531 157.212 219.183 161.732 216.1 167.303C213.091 172.813 210.523 177.271 210.376 177.271ZM221.237 202.839C221.237 202.839 221.384 202.591 221.825 202.22C222.265 201.786 222.779 201.229 223.439 200.61C224.834 199.248 226.742 197.391 228.723 195.286C230.705 193.181 232.466 191.2 233.714 189.776C234.301 189.095 234.815 188.538 235.181 188.105C235.548 187.733 235.769 187.485 235.769 187.485C235.769 187.485 235.622 187.733 235.328 188.166C235.035 188.6 234.521 189.219 233.934 189.9C232.76 191.386 231.072 193.367 229.017 195.472C227.035 197.577 225.054 199.434 223.659 200.734C222.925 201.353 222.338 201.91 221.898 202.22C221.531 202.653 221.311 202.839 221.237 202.839ZM200.101 199.124C200.101 199.124 200.395 199.124 200.982 199.186C201.496 199.248 202.303 199.372 203.257 199.496C205.165 199.805 207.807 200.177 210.743 200.672C213.678 201.167 216.32 201.601 218.228 201.972C219.183 202.158 219.916 202.282 220.504 202.405C221.017 202.529 221.311 202.591 221.311 202.591C221.311 202.591 221.017 202.591 220.43 202.529C219.916 202.467 219.109 202.344 218.155 202.22C216.247 201.91 213.605 201.539 210.669 201.043C207.734 200.548 205.092 200.115 203.184 199.743C202.23 199.558 201.496 199.434 200.909 199.31C200.395 199.248 200.101 199.124 200.101 199.124ZM206.339 222.711C206.339 222.711 206.706 222.711 207.44 222.835C208.247 222.959 209.202 223.083 210.376 223.207C212.871 223.578 216.247 224.073 219.99 224.631C223.733 225.188 227.109 225.745 229.53 226.178C230.705 226.364 231.659 226.55 232.393 226.674C233.053 226.797 233.42 226.859 233.42 226.921C233.42 226.921 233.053 226.921 232.319 226.797C231.512 226.674 230.558 226.55 229.384 226.426C226.888 226.055 223.513 225.559 219.77 225.002C216.027 224.445 212.651 223.888 210.229 223.454C209.055 223.269 208.101 223.083 207.367 222.959C206.706 222.835 206.266 222.773 206.339 222.711ZM232.833 226.674C232.833 226.674 233.053 226.364 233.494 225.869C234.007 225.312 234.668 224.631 235.475 223.764C237.163 222.03 239.438 219.554 241.933 216.83C244.429 214.106 246.557 211.568 248.098 209.711C248.832 208.844 249.419 208.101 249.933 207.544C250.373 207.049 250.593 206.739 250.667 206.739C250.667 206.739 250.52 207.049 250.08 207.606C249.713 208.163 249.126 208.906 248.392 209.834C246.924 211.692 244.796 214.292 242.3 217.016C239.805 219.74 237.53 222.154 235.769 223.888C234.888 224.754 234.154 225.435 233.714 225.869C233.127 226.426 232.833 226.674 232.833 226.674Z" fill="#E0E0E0"/>
<path d="M472.971 244.636C455.431 235.164 450.734 216.653 450.587 199.876C450.587 197.09 450.073 194.119 451.541 191.642C453.009 189.166 456.605 187.309 459.614 188.423C462.109 189.29 463.284 191.704 464.751 193.685C466.733 196.285 469.522 198.39 472.824 199.69C474.952 200.557 477.594 201.052 479.649 200C482.438 198.576 482.658 195.233 482.512 192.447C482.218 187.247 481.924 182.046 481.704 176.908C481.558 174.122 481.411 171.274 482.291 168.612C483.172 165.95 485.374 163.412 488.456 162.545C491.539 161.678 495.502 163.102 496.309 165.826C496.602 166.941 496.382 168.117 496.529 169.293C496.676 170.469 497.336 171.708 498.657 171.955C499.978 172.265 501.299 171.398 502.253 170.531C505.556 167.622 507.684 163.907 509.666 160.255C511.647 156.602 513.555 152.826 516.564 149.668C519.5 146.511 523.683 143.911 528.38 143.539C533.077 143.168 538.214 145.458 539.609 149.297C541.003 153.197 538.435 157.221 535.646 160.502C531.462 165.331 526.472 169.727 520.894 173.317C519.867 173.998 518.766 174.679 518.473 175.732C517.812 177.589 520.014 179.384 522.215 179.941C524.711 180.561 527.353 180.251 529.921 180.437C532.49 180.622 535.352 181.489 536.38 183.47C537.847 186.256 535.205 189.352 532.49 191.395C527.133 195.481 520.894 198.762 514.216 201.114C511.794 201.919 509.299 202.662 507.391 204.21C505.483 205.695 504.455 208.234 505.703 210.153C506.95 212.072 510.033 212.629 512.601 212.134C515.097 211.639 517.372 210.401 519.72 209.534C524.197 207.924 530.068 207.986 533.077 211.205C535.059 213.31 535.426 216.344 534.545 218.944C533.738 221.544 531.829 223.835 529.848 226.001C522.949 233.43 513.849 239.559 503.501 242.964C493.226 246.369 483.539 247.546 472.971 244.636Z" fill="#F5F5F5"/>
<path d="M473.471 247.989C475.966 239.446 479.709 230.221 483.965 220.749C485.066 218.397 486.094 216.044 487.121 213.753C488.149 211.463 489.249 209.172 490.424 207.005C492.772 202.61 495.414 198.586 498.056 194.809C500.698 191.033 503.414 187.504 505.909 184.285C508.478 181.004 510.899 178.032 513.248 175.37C517.945 170.046 522.348 166.146 525.504 163.546C527.045 162.246 528.366 161.255 529.173 160.636C529.614 160.326 529.907 160.079 530.128 159.893C530.348 159.707 530.494 159.645 530.494 159.645C530.494 159.645 530.421 159.769 530.201 159.893C529.981 160.079 529.687 160.326 529.247 160.636C528.44 161.317 527.192 162.307 525.651 163.608C522.568 166.208 518.238 170.17 513.615 175.494C511.266 178.156 508.845 181.19 506.349 184.409C503.854 187.69 501.139 191.219 498.57 194.995C495.928 198.772 493.286 202.796 491.011 207.191C489.837 209.358 488.809 211.649 487.782 213.939C486.754 216.23 485.653 218.582 484.626 220.935C480.369 230.407 476.7 239.569 474.131 248.113" fill="#E0E0E0"/>
<path d="M490.571 206.944C490.497 206.944 490.424 206.51 490.204 205.767C489.984 205.024 489.763 203.91 489.47 202.486C488.883 199.7 488.222 195.924 487.488 191.652C486.754 187.442 486.021 183.604 485.36 180.88C485.067 179.518 484.773 178.404 484.553 177.661C484.333 176.918 484.259 176.485 484.333 176.485C484.406 176.485 484.553 176.856 484.773 177.661C485.067 178.404 485.36 179.518 485.727 180.88C486.461 183.604 487.268 187.442 488.002 191.652C488.663 195.8 489.323 199.577 489.837 202.486C490.057 203.786 490.277 204.901 490.424 205.767C490.571 206.448 490.644 206.882 490.571 206.944ZM532.696 198.834C532.696 198.896 532.109 198.957 531.008 199.081C529.908 199.205 528.366 199.391 526.385 199.638C522.495 200.134 517.211 200.938 511.413 202.053C505.616 203.167 500.405 204.405 496.662 205.396C494.754 205.891 493.286 206.263 492.259 206.572C491.231 206.882 490.644 207.006 490.644 206.944C490.644 206.882 491.158 206.696 492.185 206.386C493.213 206.015 494.681 205.582 496.589 205.024C500.332 203.972 505.542 202.672 511.34 201.558C517.211 200.443 522.495 199.638 526.385 199.267C528.366 199.081 529.908 198.957 531.008 198.896C532.109 198.772 532.696 198.772 532.696 198.834ZM473.985 247.308C473.985 247.308 473.838 247.184 473.691 246.875C473.471 246.503 473.251 246.132 472.884 245.575C472.223 244.46 471.269 242.851 470.168 240.808C467.967 236.784 465.031 231.15 461.949 224.835C458.866 218.582 456.078 212.887 453.949 208.801C452.922 206.82 452.041 205.21 451.381 203.972C451.087 203.477 450.867 203.043 450.72 202.672C450.573 202.362 450.5 202.177 450.5 202.177C450.5 202.177 450.647 202.3 450.794 202.61C451.014 202.981 451.234 203.353 451.601 203.91C452.261 205.024 453.215 206.634 454.316 208.677C456.518 212.701 459.454 218.335 462.536 224.649C465.618 230.902 468.407 236.598 470.535 240.622C471.563 242.603 472.443 244.213 473.104 245.451C473.398 245.946 473.618 246.379 473.765 246.751L473.985 247.308Z" fill="#E0E0E0"/>
<path d="M529.615 230.097C529.615 230.097 529.395 230.159 529.028 230.283C528.587 230.407 528.074 230.593 527.413 230.778C525.945 231.212 523.89 231.893 521.469 232.636C516.405 234.183 509.506 236.412 501.874 238.888C494.241 241.365 487.269 243.532 482.205 245.017C479.637 245.76 477.582 246.317 476.187 246.689C475.527 246.875 475.013 246.998 474.499 247.122C474.132 247.184 473.912 247.246 473.912 247.246C473.912 247.246 474.132 247.184 474.426 247.06C474.866 246.937 475.38 246.751 476.04 246.565C477.508 246.132 479.563 245.451 481.985 244.708C487.049 243.16 493.947 240.931 501.58 238.455C509.213 235.979 516.185 233.812 521.248 232.326C523.817 231.583 525.872 231.026 527.266 230.655C527.927 230.469 528.441 230.345 528.954 230.221C529.395 230.097 529.615 230.097 529.615 230.097ZM510.754 26.4182L498.057 58.3011C497.03 60.9013 498.424 63.7491 501.36 64.9253C504.442 66.1635 508.185 65.173 509.8 62.6347L529.028 32.7948C530.496 30.5661 529.248 27.7183 526.459 26.7897L517.432 23.818C514.717 22.8894 511.708 24.0657 510.754 26.4182ZM502.681 85.7266C499.158 89.1316 493.067 89.5649 488.957 86.5933C484.921 83.6217 484.407 78.4833 487.93 75.0164C491.452 71.6115 497.544 71.1781 501.653 74.1497C505.69 77.1213 506.204 82.3216 502.681 85.7266Z" fill="#E0E0E0"/>
</svg>
