<svg width="486" height="431" viewBox="0 0 486 431" fill="none" xmlns="http://www.w3.org/2000/svg">
<g clip-path="url(#clip0_226_2951)">
<path d="M323.465 9.91999C323.465 9.91999 243.225 -19.97 165.395 25.02C87.555 70.02 49.125 160.81 16.065 233.5C-17.005 306.2 3.47499 380.82 63.755 415.5C124.025 450.17 164.105 400.69 248.045 399.32C331.985 397.95 354.715 410.44 423.785 363.08C492.865 315.72 504.045 201.96 448.035 116.97C392.015 31.98 323.465 9.91999 323.465 9.91999Z" fill="#15ACC0"/>
<path opacity="0.7" d="M323.465 9.91999C323.465 9.91999 243.225 -19.97 165.395 25.02C87.555 70.02 49.125 160.81 16.065 233.5C-17.005 306.2 3.47499 380.82 63.755 415.5C124.025 450.17 164.105 400.69 248.045 399.32C331.985 397.95 354.715 410.44 423.785 363.08C492.865 315.72 504.045 201.96 448.035 116.97C392.015 31.98 323.465 9.91999 323.465 9.91999Z" fill="white"/>
<g opacity="0.3">
<path d="M89.2982 92.731C103.466 78.5628 103.466 55.5915 89.2982 41.4233C75.1299 27.2551 52.1587 27.2551 37.9905 41.4233C23.8223 55.5915 23.8223 78.5628 37.9905 92.731C52.1587 106.899 75.13 106.899 89.2982 92.731Z" stroke="black" stroke-miterlimit="10"/>
<path d="M63.6448 100.89C82.3176 100.89 97.4548 85.7526 97.4548 67.0799C97.4548 48.4071 82.3176 33.2699 63.6448 33.2699C44.9721 33.2699 29.8348 48.4071 29.8348 67.0799C29.8348 85.7526 44.9721 100.89 63.6448 100.89Z" stroke="black" stroke-miterlimit="10"/>
<path d="M70.0749 77.23L63.6449 67.08H35.9249" stroke="black" stroke-miterlimit="10"/>
</g>
<g opacity="0.3">
<path d="M369.765 31.3199H332.915V106.32H369.765V31.3199Z" stroke="black" stroke-miterlimit="10"/>
<path d="M411.145 31.3199H374.295V106.32H411.145V31.3199Z" stroke="black" stroke-miterlimit="10"/>
<path d="M452.525 31.3199H415.675V106.32H452.525V31.3199Z" stroke="black" stroke-miterlimit="10"/>
<path d="M369.765 110.2H332.915V185.2H369.765V110.2Z" stroke="black" stroke-miterlimit="10"/>
<path d="M411.145 110.2H374.295V185.2H411.145V110.2Z" stroke="black" stroke-miterlimit="10"/>
<path d="M452.525 110.2H415.675V185.2H452.525V110.2Z" stroke="black" stroke-miterlimit="10"/>
<path d="M369.765 189.08H332.915V264.08H369.765V189.08Z" stroke="black" stroke-miterlimit="10"/>
<path d="M411.145 189.08H374.295V264.08H411.145V189.08Z" stroke="black" stroke-miterlimit="10"/>
<path d="M452.525 189.08H415.675V264.08H452.525V189.08Z" stroke="black" stroke-miterlimit="10"/>
<path d="M369.765 267.96H332.915V342.96H369.765V267.96Z" stroke="black" stroke-miterlimit="10"/>
<path d="M411.145 267.96H374.295V342.96H411.145V267.96Z" stroke="black" stroke-miterlimit="10"/>
<path d="M452.525 267.96H415.675V342.96H452.525V267.96Z" stroke="black" stroke-miterlimit="10"/>
</g>
<path d="M18.9249 350.76H485.685" stroke="#283252" stroke-miterlimit="10"/>
<path d="M48.5549 250.42C48.5549 250.42 48.5549 250.32 48.6049 250.3C48.6449 250.28 48.6949 250.3 48.7149 250.34C51.3249 256.36 53.1549 262.68 54.6849 269.06C56.1649 275.45 57.2349 281.94 57.9849 288.47L58.4549 293.38C58.5249 294.2 58.6149 295.02 58.6749 295.84L58.8049 298.3C58.8749 299.94 58.9749 301.58 59.0249 303.23L58.9849 308.16L58.9349 310.62C58.8949 311.44 58.8349 312.26 58.7849 313.08C58.6649 314.72 58.5649 316.36 58.4149 317.99C58.1049 321.26 57.6049 324.51 57.1049 327.75C57.1049 327.79 57.0649 327.82 57.0149 327.82C56.9649 327.82 56.9249 327.78 56.9249 327.73C56.9249 326.08 57.0049 324.45 57.0349 322.81C57.0849 321.18 57.2249 319.55 57.2049 317.91C57.2049 316.28 57.2449 314.65 57.2549 313.02L57.3049 310.58L57.2649 308.14L57.2449 303.25L57.1149 298.37L57.0649 295.93C57.0349 295.12 56.9749 294.3 56.9249 293.49L56.6249 288.61C56.0549 282.12 55.1649 275.65 53.8649 269.25C52.5649 262.86 50.9649 256.5 48.5749 250.42H48.5549Z" fill="#283252"/>
<path d="M47.855 275.96C47.855 275.96 47.865 275.87 47.905 275.85C47.955 275.83 47.995 275.85 48.015 275.9C49.425 279.96 50.545 284.11 51.495 288.31C52.405 292.51 53.115 296.77 53.545 301.06C53.975 305.33 54.455 309.61 54.515 313.91C54.585 318.21 54.515 322.51 54.055 326.8C54.055 326.84 54.015 326.87 53.975 326.88C53.925 326.88 53.885 326.85 53.875 326.8C53.375 322.52 53.075 318.25 52.775 313.98C52.475 309.71 52.435 305.44 52.155 301.17C51.895 296.92 51.365 292.68 50.635 288.47C49.915 284.26 49.025 280.07 47.845 275.95L47.855 275.96Z" fill="#283252"/>
<path d="M33.6949 284.95C33.6949 284.95 33.7749 284.9 33.8149 284.92C37.3549 287.16 40.5249 289.99 43.2849 293.18C44.6449 294.8 45.9049 296.49 46.9849 298.33L47.7449 299.77L48.3449 301.26C48.5549 301.75 48.7049 302.26 48.8649 302.77C49.0149 303.28 49.1849 303.79 49.3249 304.3C50.3849 308.4 51.0949 312.59 51.2849 316.79C51.4549 320.99 51.3749 325.2 50.8149 329.37C50.8149 329.41 50.7749 329.44 50.7349 329.44C50.6849 329.44 50.6449 329.41 50.6449 329.36L49.5649 316.91C49.1349 312.79 48.8749 308.65 47.9849 304.63C47.8749 304.13 47.7249 303.64 47.6049 303.14C47.4749 302.64 47.3549 302.15 47.1649 301.67L46.6549 300.23L46.0049 298.87C45.0449 297.07 43.8749 295.35 42.6149 293.72C40.0849 290.46 37.1149 287.48 33.7249 285.07C33.7249 285.07 33.6749 284.99 33.7049 284.95H33.6949Z" fill="#283252"/>
<path d="M40.555 300.95C42.485 302.2 43.775 304.16 44.865 306.13C45.895 308.14 46.715 310.28 47.275 312.47C47.445 313.01 47.575 313.56 47.695 314.11L48.085 315.77C48.285 316.88 48.435 318.01 48.505 319.13C48.515 320.26 48.555 321.39 48.475 322.51C48.385 323.64 48.255 324.76 48.035 325.87C48.035 325.9 48.005 325.93 47.965 325.94C47.915 325.94 47.875 325.92 47.865 325.87C47.595 324.76 47.415 323.66 47.265 322.56C47.095 321.46 46.915 320.37 46.785 319.28C46.625 318.19 46.485 317.11 46.395 316.02C46.245 314.94 46.165 313.84 45.925 312.77C45.545 310.61 44.925 308.5 44.075 306.49C43.235 304.49 42.145 302.5 40.455 301.09H40.445C40.445 301.09 40.405 301 40.425 300.97C40.455 300.93 40.505 300.92 40.545 300.94L40.555 300.95Z" fill="#283252"/>
<path d="M60.415 313.43C60.885 307.9 61.795 302.43 62.655 296.96C63.515 291.49 64.475 286.03 65.475 280.59C66.515 275.15 67.595 269.72 68.765 264.31C68.765 264.27 68.815 264.24 68.865 264.24C68.915 264.24 68.945 264.29 68.935 264.34C67.985 269.79 67.135 275.26 66.325 280.73C65.495 286.2 64.715 291.67 64.025 297.15C63.345 302.64 62.825 308.13 62.135 313.61L60.115 330.07C60.115 330.07 60.075 330.14 60.035 330.15C59.985 330.15 59.945 330.12 59.945 330.07C59.885 328.68 59.885 327.3 59.845 325.91C59.835 324.52 59.905 323.14 59.925 321.75C59.975 318.97 60.215 316.21 60.425 313.44L60.415 313.43Z" fill="#283252"/>
<path d="M63.725 313.35C64.025 311.16 64.425 308.98 64.845 306.81L65.625 303.58C65.875 302.5 66.125 301.43 66.435 300.36C67.535 296.08 68.945 291.87 70.665 287.79L71.325 286.27L72.065 284.78C72.535 283.78 73.105 282.82 73.635 281.86C74.795 279.98 75.995 278.1 77.625 276.57C77.655 276.54 77.715 276.54 77.745 276.57C77.775 276.6 77.785 276.66 77.745 276.69C76.235 278.26 75.135 280.2 74.095 282.11C73.615 283.09 73.105 284.06 72.695 285.07L72.045 286.57L71.465 288.11C69.935 292.2 68.705 296.41 67.785 300.69C67.285 302.82 66.945 304.99 66.535 307.13L66.015 310.37C65.825 311.45 65.595 312.52 65.445 313.6C65.095 315.76 64.705 317.92 64.325 320.08C63.985 322.25 63.595 324.41 63.135 326.58C63.135 326.62 63.095 326.65 63.045 326.65C62.995 326.65 62.955 326.61 62.955 326.56C62.955 324.35 62.995 322.14 63.105 319.93C63.235 317.72 63.495 315.53 63.725 313.33V313.35Z" fill="#283252"/>
<path d="M68.3049 313.63C69.3249 310.73 70.5149 307.89 71.8049 305.11C73.1349 302.34 74.5649 299.62 76.2049 297.04C76.2349 297 76.2849 296.99 76.3249 297.01C76.3649 297.03 76.3749 297.09 76.3549 297.13C74.9149 299.82 73.6949 302.62 72.5949 305.46C71.4749 308.29 70.4649 311.16 69.6149 314.07C68.7549 316.98 68.1349 319.95 67.3549 322.88C66.5449 325.8 65.8849 328.76 64.9849 331.72C64.9749 331.76 64.9449 331.78 64.9049 331.78C64.8549 331.78 64.8149 331.74 64.8149 331.69C64.7749 328.6 65.0749 325.52 65.6749 322.49C66.2149 319.45 67.2849 316.54 68.3049 313.64V313.63Z" fill="#283252"/>
<path d="M68.495 323.29C69.015 321.47 69.915 319.78 70.925 318.19C71.925 316.59 73.085 315.07 74.465 313.79C75.175 313.17 75.915 312.58 76.715 312.09C77.515 311.59 78.355 311.17 79.275 310.93C79.315 310.92 79.355 310.93 79.375 310.98C79.395 311.02 79.375 311.07 79.335 311.09H79.325C77.665 311.83 76.265 313.05 75.085 314.39C73.885 315.73 72.925 317.26 72.135 318.86C71.295 320.45 70.865 322.2 70.135 323.84C69.815 324.68 69.495 325.52 69.125 326.36C68.805 327.21 68.455 328.07 68.015 328.91C68.015 328.91 67.975 328.96 67.945 328.96C67.895 328.96 67.855 328.92 67.855 328.88C67.815 327.93 67.875 326.99 67.965 326.05C68.105 325.12 68.295 324.2 68.515 323.28L68.495 323.29Z" fill="#283252"/>
<path d="M68.1449 272.22C68.1449 272.22 77.2049 270.13 79.2949 260.37C81.3849 250.61 74.6449 254.79 80.6849 239.46C86.7249 224.13 85.3349 220.64 83.2449 216.23C81.1549 211.82 79.9949 213.21 78.1349 219.02C76.2749 224.83 69.5349 233.89 66.9849 250.84C64.4249 267.8 68.1449 272.21 68.1449 272.21V272.22Z" fill="#15ACC0"/>
<path d="M50.2649 255.73C50.2649 255.73 56.3049 253.64 56.5349 242.26C56.7649 230.88 52.1249 233.2 51.4249 219.03C50.7249 204.86 49.7949 194.87 47.2449 194.64C44.6849 194.41 37.9549 201.61 35.6349 217.41C33.3149 233.21 38.6549 243.66 43.3049 248.31C47.9549 252.96 50.2749 255.74 50.2749 255.74L50.2649 255.73Z" fill="#15ACC0"/>
<path d="M71.4049 285.92C71.4049 285.92 72.7949 277.56 75.5849 273.61C78.3749 269.66 84.4149 266.18 88.3649 258.51C92.3149 250.84 96.7249 247.13 96.4949 258.05C96.2649 268.97 91.3849 274.54 85.3449 278.26C79.3049 281.98 71.4049 285.93 71.4049 285.93V285.92Z" fill="#15ACC0"/>
<path d="M73.955 300.33C73.955 300.33 79.535 289.64 87.665 281.75C95.795 273.85 102.295 269.9 99.975 273.85C97.655 277.8 94.865 277.57 90.915 284.54C86.965 291.51 88.125 296.62 82.555 300.57C76.975 304.52 73.955 300.34 73.955 300.34V300.33Z" fill="#15ACC0"/>
<path d="M74.655 314.03C74.885 313.33 75.115 308.22 83.015 304.04C90.915 299.86 98.345 301.48 97.415 303.58C96.485 305.67 91.605 309.16 86.725 311.25C81.845 313.34 74.645 314.04 74.645 314.04L74.655 314.03Z" fill="#15ACC0"/>
<path d="M50.7249 286.39C50.7249 286.39 54.2049 281.98 52.3549 272.68C50.4949 263.39 46.3149 265.71 41.6649 260.83C37.0149 255.95 37.9449 255.25 33.3049 250.14C28.6549 245.03 24.4749 242.24 22.6149 244.33C20.7549 246.42 23.5449 252.93 26.3349 256.64C29.1249 260.36 33.5349 262.22 35.6249 266.86C37.7149 271.51 36.7849 278.94 42.1249 282.42C47.4649 285.9 50.7149 286.37 50.7149 286.37L50.7249 286.39Z" fill="#15ACC0"/>
<path d="M39.1149 288.94C39.1149 288.94 30.7549 279.42 24.7149 272.45C18.6749 265.48 16.3549 260.14 16.1249 264.78C15.8949 269.43 14.0349 273.14 18.9149 279.18C23.7949 285.22 39.1249 288.94 39.1249 288.94H39.1149Z" fill="#15ACC0"/>
<path d="M43.5249 304.28C43.5249 304.28 43.7549 300.56 30.5149 291.97C17.2749 283.38 11.6949 281.75 13.0949 285.23C14.4849 288.71 20.2949 292.2 26.5649 298.47C32.8349 304.74 43.5249 304.28 43.5249 304.28Z" fill="#15ACC0"/>
<path d="M67.5949 271.23C67.5949 271.23 70.7049 254.57 73.9549 242.72C77.2049 230.87 79.2949 223.67 79.2949 223.67" stroke="#283252" stroke-linecap="round" stroke-linejoin="round"/>
<path d="M50.7949 255.9C50.7949 255.9 45.1449 237.84 43.2949 226.92C41.4349 216 43.5249 207.87 44.4549 202.99" stroke="#283252" stroke-linecap="round" stroke-linejoin="round"/>
<path d="M72.1349 285.58C72.1349 285.58 75.5849 279.42 80.6949 273.38C85.8049 267.34 89.755 264.09 92.075 258.28" stroke="#283252" stroke-linecap="round" stroke-linejoin="round"/>
<path d="M50.725 286.39C50.725 286.39 48.865 275.24 44.455 269.43C40.045 263.62 31.215 254.56 27.725 248.76" stroke="#283252" stroke-linecap="round" stroke-linejoin="round"/>
<path d="M75.1949 313.78C75.1949 313.78 83.0149 308.69 88.5849 305.9" stroke="#283252" stroke-linecap="round" stroke-linejoin="round"/>
<path d="M50.7049 375.33C47.0749 375.33 44.0649 372.56 43.7549 368.95C42.5949 355.16 40.1749 324.16 41.4249 322.63C46.5449 316.39 68.5949 316.39 73.7149 322.63C74.9649 324.16 72.5449 355.15 71.3849 368.95C71.0849 372.56 68.0649 375.33 64.4349 375.33H50.6949H50.7049Z" fill="#283252" stroke="#283252" stroke-linecap="round" stroke-linejoin="round"/>
<path d="M179.765 257.44H174.345V279.12H179.765V257.44Z" fill="#283252" stroke="#283252" stroke-linecap="round" stroke-linejoin="round"/>
<path d="M263.435 257.44H258.015V279.12H263.435V257.44Z" fill="#283252" stroke="#283252" stroke-linecap="round" stroke-linejoin="round"/>
<path d="M186.215 186.62H249.715C253.695 186.62 256.925 189.85 256.925 193.83V288.45H179.005V193.83C179.005 189.85 182.235 186.62 186.215 186.62Z" fill="#ABABAB" stroke="#283252" stroke-linecap="round" stroke-linejoin="round"/>
<path d="M182.475 375.32C184.717 375.32 186.535 373.502 186.535 371.26C186.535 369.018 184.717 367.2 182.475 367.2C180.233 367.2 178.415 369.018 178.415 371.26C178.415 373.502 180.233 375.32 182.475 375.32Z" fill="white" stroke="#283252" stroke-linecap="round" stroke-linejoin="round"/>
<path d="M222.105 371.26C222.105 369.02 220.285 367.2 218.045 367.2C215.805 367.2 213.985 369.02 213.985 371.26C213.985 373.5 215.805 375.32 218.045 375.32C220.285 375.32 222.105 373.5 222.105 371.26Z" fill="white" stroke="#283252" stroke-linecap="round" stroke-linejoin="round"/>
<path d="M257.675 371.26C257.675 369.02 255.855 367.2 253.615 367.2C251.375 367.2 249.555 369.02 249.555 371.26C249.555 373.5 251.375 375.32 253.615 375.32C255.855 375.32 257.675 373.5 257.675 371.26Z" fill="white" stroke="#283252" stroke-linecap="round" stroke-linejoin="round"/>
<path d="M221.715 350.85V283.87H214.575V350.42L214.315 350.6L177.395 365.5V369.91H183.155V366.86L215.145 362.15L215.735 369.91H220.005L220.595 362.2L252.255 366.86V369.91H258.015V365.5L221.715 350.85Z" fill="#283252" stroke="#283252" stroke-linecap="round" stroke-linejoin="round"/>
<path d="M229.295 291.28H206.625V299.31H229.295V291.28Z" fill="#283252" stroke="#283252" stroke-linecap="round" stroke-linejoin="round"/>
<path d="M260.555 273.81H175.365C173.852 273.81 172.625 275.037 172.625 276.55V289.01C172.625 290.523 173.852 291.75 175.365 291.75H260.555C262.068 291.75 263.295 290.523 263.295 289.01V276.55C263.295 275.037 262.068 273.81 260.555 273.81Z" fill="#ABABAB" stroke="#283252" stroke-linecap="round" stroke-linejoin="round"/>
<path d="M176.815 244.9H170.175C168.921 244.9 167.905 245.916 167.905 247.17V259.23C167.905 260.484 168.921 261.5 170.175 261.5H176.815C178.069 261.5 179.085 260.484 179.085 259.23V247.17C179.085 245.916 178.069 244.9 176.815 244.9Z" fill="#ABABAB" stroke="#283252" stroke-linecap="round" stroke-linejoin="round"/>
<path d="M265.405 244.9H258.765C257.511 244.9 256.495 245.916 256.495 247.17V259.23C256.495 260.484 257.511 261.5 258.765 261.5H265.405C266.659 261.5 267.675 260.484 267.675 259.23V247.17C267.675 245.916 266.659 244.9 265.405 244.9Z" fill="#ABABAB" stroke="#283252" stroke-linecap="round" stroke-linejoin="round"/>
<path d="M95.835 271.36L336.335 271.36V247.96L95.835 247.96V271.36Z" fill="white" stroke="#283252" stroke-linecap="round" stroke-linejoin="round"/>
<path d="M95.835 254.18L336.335 254.18V247.96L95.835 247.96V254.18Z" fill="#283252" stroke="#283252" stroke-linecap="round" stroke-linejoin="round"/>
<path d="M333.795 375.33H337.205L338.335 247.62H332.655L333.795 375.33Z" fill="white" stroke="#283252" stroke-linecap="round" stroke-linejoin="round"/>
<path d="M94.6249 375.33H98.0349L99.1749 247.62H93.4949L94.6249 375.33Z" fill="white" stroke="#283252" stroke-linecap="round" stroke-linejoin="round"/>
<path d="M90.3249 249.83L341.785 249.83V244.55L90.3249 244.55V249.83Z" fill="white" stroke="#283252" stroke-linecap="round" stroke-linejoin="round"/>
<path d="M185.815 244.86H261.475V241.74H185.815V244.86Z" fill="white" stroke="#283252" stroke-linecap="round" stroke-linejoin="round"/>
<path d="M244.475 230.57H335.505V169.23H244.475V230.57Z" fill="#283252" stroke="#283252" stroke-linecap="round" stroke-linejoin="round"/>
<path d="M264.135 244.86H300.975V241.4H264.135V244.86Z" fill="#ABABAB" stroke="#283252" stroke-linecap="round" stroke-linejoin="round"/>
<path d="M279.015 244.86H300.975V205.15H279.015V244.86Z" fill="#ABABAB" stroke="#283252" stroke-linecap="round" stroke-linejoin="round"/>
<path d="M210.665 36.2699L220.925 38.8299" stroke="#283252" stroke-miterlimit="10"/>
<path d="M227.335 15.7499L230.335 22.5899" stroke="#283252" stroke-miterlimit="10"/>
<path d="M288.045 36.2699L277.785 38.8299" stroke="#283252" stroke-miterlimit="10"/>
<path d="M271.375 15.7499L268.375 22.5899" stroke="#283252" stroke-miterlimit="10"/>
<path d="M249.995 6.7699V15.3199" stroke="#283252" stroke-miterlimit="10"/>
<path d="M259.055 55.5999L256.965 42.6599C256.965 42.6599 255.915 33.8999 255.915 31.0199C255.915 28.1399 254.865 27.8799 254.475 28.4099L253.295 29.0599C253.295 29.0599 252.905 25.6599 251.855 26.7099C250.805 27.7599 250.675 29.1899 250.675 29.1899C250.675 29.1899 249.495 31.2799 248.975 33.8999C248.755 34.9899 248.585 36.7399 248.455 38.4399L247.795 37.5599C247.795 37.5599 247.405 33.2499 247.275 32.3299C247.145 31.4099 245.705 32.4599 245.575 35.7299C245.475 38.2799 246.965 44.8199 247.625 47.5599C247.275 50.4999 246.965 54.1599 247.405 55.8599C248.185 58.8699 249.755 60.8299 250.285 61.6099C250.815 62.3899 253.945 70.8899 253.945 70.8899L263.355 66.7099L259.045 55.5999H259.055Z" fill="white" stroke="#283252" stroke-miterlimit="10"/>
<path d="M255.525 50.3699C255.525 50.3699 252.775 45.2699 252.255 44.3599C251.735 43.4399 248.595 39.6499 247.805 37.5599C247.025 35.4699 245.195 38.3399 245.975 40.5699C246.755 42.7899 249.895 46.8499 249.895 46.8499C249.895 46.8499 248.845 50.3799 250.285 53.3899C251.725 56.3999 254.595 57.6999 254.595 57.6999" fill="white"/>
<path d="M255.525 50.3699C255.525 50.3699 252.775 45.2699 252.255 44.3599C251.735 43.4399 248.595 39.6499 247.805 37.5599C247.025 35.4699 245.195 38.3399 245.975 40.5699C246.755 42.7899 249.895 46.8499 249.895 46.8499C249.895 46.8499 248.845 50.3799 250.285 53.3899C251.725 56.3999 254.595 57.6999 254.595 57.6999" stroke="#283252" stroke-miterlimit="10"/>
<path d="M253.295 29.0599C253.295 29.0599 252.375 39.2599 252.775 43.1799" stroke="#283252" stroke-miterlimit="10"/>
<path d="M250.685 29.1899C250.685 29.1899 249.765 37.2999 250.295 40.6999" stroke="#283252" stroke-miterlimit="10"/>
<path d="M328.275 122.66C328.275 122.66 312.165 117.05 311.085 117.05C310.005 117.05 298.725 116.24 298.725 116.24L285.385 109.27L263.885 65.62L251.215 71.77C251.215 71.77 255.735 95.12 259.355 107.97C262.975 120.82 267.105 128.22 267.105 128.22L295.875 149.63L297.325 151.62L328.275 122.66Z" fill="#15ACC0" stroke="#283252" stroke-miterlimit="10"/>
<path d="M282.675 175.51C282.675 175.51 276.705 201.57 276.705 215.51C276.705 229.45 277.065 233.07 277.975 233.61C278.875 234.15 289.195 235.96 290.105 235.78C291.015 235.6 293.725 234.69 293.725 234.69C293.725 234.69 306.935 172.07 308.385 164.29C309.835 156.51 311.825 139.5 311.825 139.5C311.825 139.5 296.625 152.53 292.455 157.06C288.285 161.59 288.655 161.77 286.845 165.2C285.035 168.63 282.685 175.52 282.685 175.52L282.675 175.51Z" fill="#15ACC0" stroke="#283252" stroke-miterlimit="10"/>
<path d="M289.565 374.57C289.565 374.57 284.715 382.59 283.865 383.43C283.015 384.27 275.635 388.71 273.525 389.34C271.415 389.97 269.095 391.24 269.095 393.35C269.095 395.46 276.055 396.52 279.645 396.52C283.235 396.52 293.785 395.89 295.045 395.89C296.305 395.89 298.635 395.68 299.685 395.89C300.745 396.1 306.015 396.95 307.495 396.31C308.975 395.68 310.235 390.4 309.815 388.08C309.395 385.76 308.125 380.48 308.125 380.48L289.555 374.57H289.565Z" fill="white" stroke="#283252" stroke-miterlimit="10"/>
<path d="M354.135 382.59L350.545 388.5C350.545 388.5 345.825 392.75 343.155 394.41C336.685 398.45 345.905 400.82 350.115 400.53C353.075 400.33 358.555 400.32 360.245 399.47C361.935 398.63 368.895 393.98 371.645 391.87C374.385 389.76 374.595 387.44 374.175 384.7C373.755 381.96 371.855 377.74 371.855 377.74C371.855 377.74 360.675 374.15 357.505 376.68C354.335 379.21 354.125 382.59 354.125 382.59H354.135Z" fill="white" stroke="#283252" stroke-miterlimit="10"/>
<path d="M292.265 228.58L287.475 253.73C287.475 253.73 279.095 306.19 279.335 308.1C279.575 310.02 289.645 364.2 289.885 366.35C290.125 368.5 287.725 370.66 287.725 370.66L288.205 375.93C288.205 375.93 294.195 380 298.265 380.96C302.335 381.92 308.565 382.16 308.565 382.16C308.565 382.16 310.725 377.61 310.725 376.89C310.725 376.17 309.285 371.38 309.285 370.66C309.285 369.94 305.445 306.66 305.445 306.66L314.785 270.49C314.785 270.49 327.485 308.81 328.675 311.45C329.875 314.08 352.975 372.63 352.975 372.63C352.975 372.63 350.815 375.5 351.535 377.66C352.255 379.82 353.215 383.89 353.215 383.89C353.215 383.89 358.485 377.9 361.115 379.82C363.745 381.74 364.225 383.89 364.225 383.89L372.605 380.54C372.605 380.54 373.325 377.19 372.845 375.51C372.365 373.83 371.165 375.99 371.165 369.76C371.165 363.53 362.915 326.3 361.235 320.56C359.555 314.81 352.615 304.03 352.615 304.03L349.505 246.06V232.65L292.255 228.58H292.265Z" fill="#283252" stroke="#283252" stroke-miterlimit="10"/>
<path d="M332.545 125.58C332.545 125.58 326.365 123.62 323.845 124.74C321.325 125.86 300.595 147.87 300.315 149.27C300.035 150.67 289.755 219.55 288.075 224.86C286.395 230.17 295.625 236.89 295.625 236.89L301.215 239.41L305.965 233.82L305.685 240.53C305.685 240.53 320.225 240.81 324.705 240.25C329.175 239.69 346.515 235.22 346.515 235.22C346.515 235.22 350.155 174.81 350.435 173.69C350.715 172.57 353.515 134.26 353.515 134.26L348.205 130.9L332.545 125.59V125.58Z" fill="white" stroke="#283252" stroke-miterlimit="10"/>
<path d="M332.465 142.3L336.375 150.12C336.375 150.12 347.735 137.83 349.035 134.85C350.335 131.87 351.455 131.68 350.715 129.82C349.975 127.96 348.105 126.1 348.105 126.1C348.105 126.1 330.785 125.54 328.555 126.66C326.325 127.78 320.175 141.74 319.805 142.68L319.435 143.61L331.165 141.56L332.465 142.3Z" fill="white" stroke="#283252" stroke-miterlimit="10"/>
<path d="M327.195 127.19C327.195 127.19 288.825 162.84 286.835 165.2C284.845 167.56 282.675 175.52 282.675 175.52C282.675 175.52 286.115 160.32 287.385 157.96C288.655 155.61 315.795 127.74 315.795 127.74L323.035 122.67L330.455 124.48L327.195 127.19Z" fill="#15ACC0" stroke="#283252" stroke-miterlimit="10"/>
<path d="M331.345 79.1699C331.345 79.1699 323.705 87.1799 323.895 88.6699C324.085 90.1599 323.705 92.2099 323.705 92.2099C323.705 92.2099 315.695 98.7299 314.955 98.9099C314.215 99.0999 314.215 100.4 314.765 101.52C315.325 102.64 316.255 102.82 316.625 103.75C316.995 104.68 316.815 107.29 315.325 112.5C313.835 117.71 313.095 118.46 314.585 119.39C316.075 120.32 326.875 124.05 326.875 124.05C326.875 124.05 327.245 139.69 327.995 141.93C328.735 144.16 332.465 142.3 332.465 142.3L348.105 127.4V124.79L360.395 110.08C360.395 110.08 363.745 97.9799 360.025 92.1999C356.305 86.4299 336.745 78.2299 336.185 78.0499C335.625 77.8599 333.015 77.4899 331.345 79.1699Z" fill="white" stroke="#283252" stroke-miterlimit="10"/>
<path d="M344.945 74.5199C344.945 74.5199 348.115 72.6599 346.065 71.7299C344.015 70.7999 341.785 71.5399 341.225 71.7299C340.665 71.9199 341.785 66.1399 338.615 67.8199C335.445 69.4999 331.355 73.5899 330.425 76.3899C329.495 79.1899 332.285 84.5799 334.705 84.9599C337.125 85.3299 342.525 87.1899 342.525 87.1899C342.525 87.1899 344.015 88.3099 343.085 90.3599C342.155 92.4099 336.755 96.5099 337.495 97.6199C338.235 98.7399 340.105 101.34 340.105 101.34C340.105 101.34 338.245 104.69 338.615 105.62C338.985 106.55 340.105 106.92 340.105 106.92C340.105 106.92 343.455 104.87 346.255 105.62C349.055 106.37 347.935 111.02 346.815 113.07C345.695 115.12 344.205 117.54 344.205 117.54C344.205 117.54 347.375 124.8 348.115 124.8C348.855 124.8 357.985 115.68 361.895 111.58C365.805 107.48 367.485 100.41 366.555 94.4499C365.625 88.4899 355.755 80.4799 352.585 78.6199C349.415 76.7599 344.945 74.5199 344.945 74.5199Z" fill="#283252" stroke="#283252" stroke-miterlimit="10"/>
<path d="M318.685 95.38C317.005 94.26 318.315 89.05 319.805 88.49C321.295 87.93 323.715 92.21 323.715 92.21C323.715 92.21 331.725 98.36 331.905 99.47C332.095 100.59 327.625 103.94 325.205 104.13C322.785 104.32 321.855 104.32 321.855 100.78C321.855 97.24 323.155 94.82 323.155 94.82" stroke="#283252" stroke-miterlimit="10"/>
<path d="M331.905 99.47L341.965 106.36" stroke="#283252" stroke-miterlimit="10"/>
<path d="M327.065 92.21C327.065 92.21 330.785 92.58 332.275 95.93" stroke="#283252" stroke-miterlimit="10"/>
<path d="M318.315 108.41C318.315 108.41 321.665 109.9 325.575 108.41" stroke="#283252" stroke-miterlimit="10"/>
<path d="M344.195 117.54C344.195 117.54 340.285 118.47 338.425 117.54" stroke="#283252" stroke-miterlimit="10"/>
<path d="M326.875 124.05L333.955 123.68L327.065 130.2L326.875 124.05Z" fill="#283252" stroke="#283252" stroke-miterlimit="10"/>
<path d="M350.715 129.83C350.715 129.83 346.965 136.28 343.315 149.15C339.665 162.03 335.825 201.04 335.825 205.27C335.825 209.5 345.625 260.23 346.395 262.15C347.165 264.07 351.965 264.26 351.965 264.26C351.965 264.26 366.185 254.65 366.955 251.96C367.725 249.27 357.925 204.11 357.925 204.11C357.925 204.11 375.795 145.69 374.645 144.92C373.495 144.15 350.725 129.83 350.725 129.83H350.715Z" fill="#15ACC0" stroke="#283252" stroke-miterlimit="10"/>
<path d="M357.345 136.27C357.345 136.27 345.435 183.93 342.545 192.19C339.665 200.45 335.815 205.26 335.815 205.26" stroke="#283252" stroke-miterlimit="10"/>
<path d="M353.365 256.03C353.365 256.03 351.565 258.8 350.595 259.9C349.625 261.01 346.995 262.25 348.245 263.08C349.495 263.91 352.805 262.39 353.635 261.14L353.355 256.02L353.365 256.03Z" fill="white" stroke="#283252" stroke-miterlimit="10"/>
<path d="M360.905 245.3C360.905 245.3 353.645 252.3 353.235 252.99C352.825 253.68 352.405 259.49 352.405 261.15C352.405 262.81 353.515 263.78 354.065 263.92C354.615 264.06 355.725 264.06 355.725 264.06L357.525 263.78C357.525 263.78 359.185 263.64 360.845 264.06C362.505 264.47 365.825 264.47 366.655 263.65C367.485 262.82 368.315 260.75 368.315 260.75C368.315 260.75 369.285 259.64 369.555 257.98C369.835 256.32 371.495 248.02 371.495 248.02C371.495 248.02 359.735 243.98 360.915 245.31L360.905 245.3Z" fill="white" stroke="#283252" stroke-miterlimit="10"/>
<path d="M355.715 264.05L356.965 256.31" stroke="#283252" stroke-miterlimit="10"/>
<path d="M359.315 263.64L360.695 257" stroke="#283252" stroke-miterlimit="10"/>
<path d="M363.465 263.91L364.705 257.69" stroke="#283252" stroke-miterlimit="10"/>
<path d="M374.635 144.92C374.635 144.92 394.225 188.25 396.915 194.98C399.605 201.71 397.495 204.14 396.915 205.87C396.335 207.6 374.155 249.52 374.155 249.52L360.895 245.29L374.555 201.34L364.445 182.19L374.635 144.91V144.92Z" fill="#15ACC0" stroke="#283252" stroke-miterlimit="10"/>
<path d="M268.265 69.3399C268.265 69.3399 268.395 64.0999 269.345 60.9999C270.285 57.9099 269.615 56.5599 268.945 56.8299C268.275 57.0999 267.465 57.2299 267.065 59.6499C266.665 62.0699 266.525 63.2799 266.525 64.7599C266.525 66.2399 268.275 69.3299 268.275 69.3299L268.265 69.3399Z" fill="white" stroke="#283252" stroke-miterlimit="10"/>
<path d="M253.735 54.06C253.975 53.64 255.505 55.29 256.565 56.26C256.145 55.4 256.035 55.35 255.355 53.87C254.545 52.12 254.695 51.11 254.815 50.64C255.175 49.24 258.045 52.35 258.885 53.97C258.455 52.67 257.575 49.97 257.375 49.16C257.105 48.08 257.245 46.61 258.045 46.07C258.855 45.53 260.065 48.36 260.065 48.36C260.065 48.36 261.815 49.17 262.485 50.51L267.055 59.65L267.455 66.1L271.625 81.97L281.305 95.42L270.625 100.61L264.365 85.74C264.365 85.74 262.755 84.4 261.545 82.51C260.665 81.14 259.855 76.06 259.375 71.95C259.135 71.27 258.785 70.17 258.555 68.81C258.165 66.52 257.455 61.16 257.455 61.16C257.455 61.16 255.405 58.71 254.295 57.06C253.645 56.08 253.425 54.61 253.745 54.06H253.735Z" fill="white" stroke="#283252" stroke-miterlimit="10"/>
<path d="M259.125 54.6799C259.125 54.6799 260.965 57.5599 261.635 59.1899C262.185 60.5299 262.665 62.4999 262.665 62.4999" stroke="#283252" stroke-miterlimit="10"/>
<path d="M260.065 48.36C260.065 48.36 263.565 56.56 264.365 57.77C265.175 58.98 265.575 61.54 265.575 62.21" stroke="#283252" stroke-miterlimit="10"/>
<path d="M256.575 56.26C256.575 56.26 259.185 58.71 259.505 59.42C259.825 60.13 260.845 64 260.845 64" stroke="#283252" stroke-miterlimit="10"/>
<path d="M341.285 329.58C341.285 329.58 342.645 348.5 340.775 357.7C338.905 366.9 332.085 380.53 331.405 382.41C330.725 384.28 324.925 405.24 325.095 406.1C325.265 406.96 329.355 414.28 328.845 417.86C328.335 421.44 327.485 422.46 325.945 422.8C324.415 423.14 317.085 422.97 312.145 427.06C307.205 431.15 299.875 430.3 297.315 430.13C294.755 429.96 288.115 429.96 287.775 428.6C287.435 427.24 291.355 424.17 293.395 423.32C295.435 422.47 300.895 417.87 302.425 416.33C303.955 414.79 309.755 407.3 310.945 404.4C312.135 401.5 315.545 357.2 316.565 350.38C317.585 343.56 318.265 335.9 318.095 331.64C317.925 327.38 318.945 324.99 318.945 324.99L341.265 329.59L341.285 329.58Z" fill="white" stroke="#283252" stroke-miterlimit="10"/>
<path d="M293.405 423.31C294.165 422.99 295.385 422.16 296.705 421.17C298.135 421.81 300.135 422.63 301.075 422.63C302.605 422.63 313.855 415.13 317.775 412.92C320.955 411.13 325.465 410.67 327.065 410.57C328.105 413.05 329.125 415.98 328.855 417.87C328.345 421.45 327.495 422.47 325.955 422.81C324.425 423.15 317.095 422.98 312.155 427.07C307.215 431.16 299.885 430.31 297.325 430.14C294.765 429.97 288.125 429.97 287.785 428.61C287.445 427.25 291.365 424.18 293.405 423.33V423.31Z" fill="#15ACC0" stroke="#283252" stroke-miterlimit="10"/>
<path d="M397.065 324.56C397.065 324.56 403.075 334.98 405.675 345.19C408.275 355.41 407.875 399.08 408.275 399.88C408.675 400.68 412.285 409.1 414.085 412.7C415.885 416.31 420.295 421.71 420.295 423.32C420.295 424.93 417.085 424.92 416.485 424.92H405.465C405.465 424.92 402.465 423.92 401.855 422.72C401.255 421.52 400.855 416.31 399.455 414.71C398.055 413.11 394.645 408.9 394.445 406.7C394.245 404.5 395.645 397.69 395.645 396.08C395.645 394.47 391.235 376.65 389.835 372.04C388.435 367.43 381.425 355.41 380.615 345.4C379.805 335.39 379.015 330.98 379.015 330.98L397.045 324.57L397.065 324.56Z" fill="white" stroke="#283252" stroke-miterlimit="10"/>
<path d="M404.005 397.7C406.275 398.36 408.265 400.77 409.385 402.34C410.695 405.32 412.835 410.18 414.095 412.7C415.895 416.31 420.305 421.71 420.305 423.32C420.305 424.93 417.095 424.92 416.495 424.92H405.475C405.475 424.92 402.475 423.92 401.865 422.72C401.265 421.52 400.865 416.31 399.465 414.71C398.065 413.11 394.655 408.9 394.455 406.7C394.335 405.39 394.785 402.46 395.165 399.96C395.785 399.34 399.145 396.29 403.995 397.71L404.005 397.7Z" fill="#15ACC0" stroke="#283252" stroke-miterlimit="10"/>
<path d="M416.505 424.92H405.485C405.485 424.92 402.485 423.92 401.875 422.72C401.275 421.52 400.875 416.31 399.475 414.71C398.295 413.36 395.695 410.17 394.785 407.87L395.325 407.3C395.325 407.3 400.715 402.96 404.665 405.33C408.615 407.7 409.665 413.22 412.165 415.98C414.665 418.74 418.855 420.79 420.315 423.32C420.315 424.92 417.105 424.92 416.505 424.92Z" fill="#283252" stroke="#283252" stroke-miterlimit="10"/>
<path d="M400.845 163.24C400.845 163.24 407.085 197.4 407.275 198.52C407.465 199.64 412.515 216.31 411.775 220.06C411.025 223.81 395.475 255.46 395.475 255.46C395.475 255.46 391.545 248.9 390.975 248.53C390.405 248.16 392.475 216.88 392.475 216.88L386.295 196.84C386.295 196.84 386.255 176.41 388.925 172.5C391.595 168.59 399.775 161.29 400.845 163.25V163.24Z" fill="#15ACC0" stroke="#283252" stroke-miterlimit="10"/>
<path d="M388.275 201.1C388.275 201.1 397.135 198.83 402.075 193.89" stroke="#283252" stroke-miterlimit="10"/>
<path d="M392.395 208.1C392.395 208.1 399.195 212.43 406.195 212.43" stroke="#283252" stroke-miterlimit="10"/>
<path d="M402.735 240.44C398.975 248.33 395.475 255.46 395.475 255.46C395.475 255.46 391.545 248.9 390.975 248.53C390.765 248.39 390.915 244.13 391.185 238.78C395.715 241.89 399.825 241.51 402.735 240.44Z" fill="white" stroke="#283252" stroke-miterlimit="10"/>
<path d="M384.825 221.75C384.825 221.75 393.565 244.27 396.965 253.08C400.375 261.89 400.875 308.93 400.875 308.93L399.875 326.56C399.875 326.56 380.245 335.78 357.805 334.77C335.365 333.77 316.135 327.36 316.135 327.36C316.135 327.36 316.235 286.54 321.245 272.92C326.255 259.3 329.855 245.47 329.855 245.47L331.535 224.36L384.825 221.76V221.75Z" fill="#283252" stroke="#283252" stroke-miterlimit="10"/>
<path d="M395.855 174.27C395.495 175.16 386.845 203.39 386.845 203.39C386.845 203.39 384.785 210.13 384.595 210.88C384.405 211.63 384.965 220.43 385.155 221.18C385.345 221.93 386.715 219.93 386.155 222.56C385.595 225.18 383.155 225.37 381.655 226.12C380.155 226.87 368.735 230.99 356.745 230.8C344.755 230.61 331.275 228.18 331.275 228.18C331.275 228.18 329.215 224.43 328.845 222.75C328.475 221.06 329.525 217.25 329.525 217.25L324.495 176.94C324.495 176.94 303.645 149.38 300.795 147.42C297.945 145.46 294.215 142.62 293.145 141.73C292.075 140.84 291.005 139.06 290.295 137.1C289.585 135.14 270.615 100.61 270.615 100.61C270.615 100.61 275.415 95.45 276.665 95.09C277.915 94.73 280.755 94.38 280.755 94.38L305.415 121.97C305.415 121.97 310.215 124.28 311.285 124.82C312.355 125.35 312.175 128.38 312.175 128.38L319.675 131.74L344.845 139.69L356.865 142.59C356.865 142.59 390.855 155.4 392.985 156.47C395.125 157.54 400.995 161.45 400.815 163.23C400.635 165.01 397.435 172.3 397.435 172.3" fill="#15ACC0"/>
<path d="M395.855 174.27C395.495 175.16 386.845 203.39 386.845 203.39C386.845 203.39 384.785 210.13 384.595 210.88C384.405 211.63 384.965 220.43 385.155 221.18C385.345 221.93 386.715 219.93 386.155 222.56C385.595 225.18 383.155 225.37 381.655 226.12C380.155 226.87 368.735 230.99 356.745 230.8C344.755 230.61 331.275 228.18 331.275 228.18C331.275 228.18 329.215 224.43 328.845 222.75C328.475 221.06 329.525 217.25 329.525 217.25L324.495 176.94C324.495 176.94 303.645 149.38 300.795 147.42C297.945 145.46 294.215 142.62 293.145 141.73C292.075 140.84 291.005 139.06 290.295 137.1C289.585 135.14 270.615 100.61 270.615 100.61C270.615 100.61 275.415 95.45 276.665 95.09C277.915 94.73 280.755 94.38 280.755 94.38L305.415 121.97C305.415 121.97 310.215 124.28 311.285 124.82C312.355 125.35 312.175 128.38 312.175 128.38L319.675 131.74L344.845 139.69L356.865 142.59C356.865 142.59 390.855 155.4 392.985 156.47C395.125 157.54 400.995 161.45 400.815 163.23C400.635 165.01 397.435 172.3 397.435 172.3" stroke="#283252" stroke-miterlimit="10"/>
<path d="M344.245 199.3C349.725 206.63 357.045 215.48 363.245 219.69" stroke="#283252" stroke-miterlimit="10"/>
<path d="M336.095 187.66C336.095 187.66 338.685 191.68 342.535 196.98" stroke="#283252" stroke-miterlimit="10"/>
<path d="M370.135 218.12C371.105 218.79 372.075 219.4 372.995 219.88" stroke="#283252" stroke-miterlimit="10"/>
<path d="M357.255 206.58C357.255 206.58 362.585 212.36 368.125 216.64" stroke="#283252" stroke-miterlimit="10"/>
<path d="M307.755 129.28C307.755 129.28 299.565 138.71 299.745 135.86C299.925 133.01 299.035 133.01 301.705 130.88" stroke="#283252" stroke-miterlimit="10"/>
<path d="M356.135 92.5199C356.135 92.5199 346.145 98.4699 345.295 100.38C344.445 102.29 344.025 106.97 342.955 108.03C341.895 109.09 335.735 110.58 335.945 112.07C336.155 113.56 338.495 118.02 338.495 118.02C338.495 118.02 338.075 132.26 338.075 133.32C338.075 134.38 339.345 135.02 340.625 135.23C341.895 135.44 344.875 136.29 344.875 136.29V139.69C344.875 139.69 353.165 142.45 354.015 142.45C354.865 142.45 360.385 142.87 360.385 142.87C360.385 142.87 371.645 135.43 375.255 124.81C378.865 114.19 375.255 105.9 371.215 101.01C367.175 96.1199 356.125 92.5099 356.125 92.5099L356.135 92.5199Z" fill="white" stroke="#283252" stroke-miterlimit="10"/>
<path d="M357.835 121.21C357.835 121.21 364.845 115.47 366.545 120.15C368.245 124.82 366.755 127.37 364.635 128.22C362.515 129.07 357.415 130.77 357.415 130.77C357.415 130.77 352.525 142.03 352.105 146.71C351.685 151.39 348.705 155 350.195 158.18C351.685 161.37 353.805 162.64 364.215 163.7C374.625 164.76 386.485 163.23 393.925 160.04C401.365 156.85 400.335 145.63 398.855 143.08C397.365 140.53 390.355 131.61 390.565 126.93C390.775 122.26 397.155 115.06 392.625 102.11C388.625 90.6699 369.095 83.5799 363.785 84.2199C358.475 84.8599 353.795 84.2199 353.795 87.6199C353.795 91.0199 354.005 94.4199 357.615 99.0899C361.225 103.76 359.105 107.38 358.255 108.23C357.405 109.08 354.645 111.84 355.065 115.24C355.485 118.64 357.825 121.19 357.825 121.19L357.835 121.21Z" fill="#283252" stroke="#283252" stroke-miterlimit="10"/>
<path d="M345.555 122.47C345.555 122.47 344.815 125.66 339.905 124.68" stroke="#283252" stroke-miterlimit="10"/>
<path d="M348.745 105.53C348.745 105.53 348.255 103.2 345.795 103.2" stroke="#283252" stroke-miterlimit="10"/>
<path d="M344.525 108.27C344.045 109.24 343.945 110.17 344.305 110.36C344.665 110.54 345.355 109.9 345.845 108.93C346.335 107.96 346.425 107.03 346.065 106.84C345.705 106.65 345.015 107.3 344.525 108.27Z" fill="#283252"/>
<path d="M141.585 98.3699C141.585 98.3699 142.135 97.2699 140.485 95.6099C138.835 93.9499 131.475 89.3599 129.265 87.8899C127.055 86.4199 124.485 81.8199 115.655 87.1499C106.825 92.4799 100.945 102.05 99.8349 108.85C98.7349 115.65 103.145 123.93 111.425 128.53C119.705 133.13 126.135 133.86 126.135 133.86L127.055 135.52L153.165 131.66C153.165 131.66 157.395 127.25 156.845 124.67C156.295 122.09 151.695 113.45 151.695 113.45C151.695 113.45 154.635 109.04 153.715 107.75C152.795 106.46 141.575 98.3699 141.575 98.3699H141.585Z" fill="white" stroke="#283252" stroke-miterlimit="10"/>
<path d="M130.735 120.62C130.735 120.62 127.055 121.91 125.585 122.46C124.115 123.01 119.885 121.72 118.045 118.05C116.205 114.38 118.965 110.51 120.985 110.14C123.005 109.77 124.665 111.06 125.765 110.88C126.865 110.7 126.865 109.41 127.055 108.31C127.235 107.21 124.115 105.18 124.115 105.18C124.115 105.18 128.345 100.58 129.445 98.5599C130.545 96.5399 121.905 94.5099 121.535 92.8599C121.165 91.2099 129.255 87.8899 129.255 87.8899C127.045 86.4199 124.475 81.8199 115.645 87.1499C106.815 92.4799 100.935 102.05 99.8249 108.85C98.7249 115.65 103.135 123.93 111.415 128.53C116.835 131.54 121.455 132.89 124.005 133.47L125.945 132.39C125.945 132.39 126.865 131.29 129.075 127.98C131.285 124.67 130.735 120.62 130.735 120.62Z" fill="#283252" stroke="#283252" stroke-miterlimit="10"/>
<path d="M140.305 97.6299C140.305 97.6299 137.915 97.2599 136.075 100.57" stroke="#283252" stroke-miterlimit="10"/>
<path d="M151.705 117.12C151.705 117.12 148.215 118.59 143.615 114.55" stroke="#283252" stroke-miterlimit="10"/>
<path d="M141.285 103.02C141.925 104.29 142.005 105.54 141.455 105.82C140.915 106.09 139.955 105.29 139.315 104.02C138.675 102.75 138.595 101.5 139.145 101.22C139.685 100.95 140.645 101.75 141.285 103.02Z" fill="#283252"/>
<path d="M149.315 133.31C149.315 133.31 127.435 131.47 126.145 133.86C124.855 136.25 125.045 141.03 125.045 141.03L149.135 135.51L149.315 133.3V133.31Z" fill="#15ACC0" stroke="#283252" stroke-miterlimit="10"/>
<path d="M184.925 122.97C184.925 122.97 229.655 74.16 229.925 73.45C230.195 72.74 231.545 56.97 231.685 55.88C231.815 54.78 231.465 53.08 232.785 51.38C234.105 49.69 236.615 45.73 236.615 45.73C236.615 45.73 238.605 41.53 239.265 40.68C239.925 39.83 241.565 38.55 242.625 37.38C243.695 36.21 245.285 35.29 246.135 35.95C246.985 36.61 247.385 39.37 247.385 39.37C247.385 39.37 248.505 39.39 248.845 41.1C249.195 42.81 246.445 51.74 246.335 52.65C246.225 53.56 245.395 61.98 244.405 67.05C243.425 72.12 241.885 75.64 240.365 77.49C238.845 79.34 222.655 102.95 218.585 107.46C214.515 111.97 198.435 139.98 198.435 139.98L184.935 122.97H184.925Z" fill="white" stroke="#283252" stroke-miterlimit="10"/>
<path d="M235.515 47.75C235.515 47.75 233.285 53.99 233.185 54.84C233.085 55.69 232.515 60.4 232.515 60.4" stroke="#283252" stroke-miterlimit="10"/>
<path d="M240.375 39.83C240.375 39.83 237.485 47.9 237.165 49.16C236.835 50.42 236.545 52.12 236.545 52.12" stroke="#283252" stroke-miterlimit="10"/>
<path d="M247.375 39.38C247.375 39.38 246.505 42.23 245.205 45.11C243.905 47.99 242.735 53.32 242.705 53.57" stroke="#283252" stroke-miterlimit="10"/>
<path d="M244.435 36.4199C244.435 36.4199 241.045 45.0399 240.565 46.8899C240.085 48.7399 239.435 51.9599 239.205 52.3699" stroke="#283252" stroke-miterlimit="10"/>
<path d="M173.085 153.29L200.305 228.3L194.185 236.87L187.755 224.85L182.695 199.23L173.085 153.29Z" fill="#283252" stroke="#283252" stroke-miterlimit="10"/>
<path d="M114.375 208.62C114.375 208.62 111.675 219.42 113.545 220.88C115.415 222.33 132.455 227.53 132.865 226.91C133.285 226.29 133.075 219.43 132.655 217.56C132.235 215.69 129.125 213.2 129.125 213.2L114.375 208.63V208.62Z" fill="white" stroke="#283252" stroke-miterlimit="10"/>
<path d="M119.145 177.25C119.145 177.25 113.745 204.68 114.155 205.72C114.575 206.76 128.495 208.42 128.495 208.42L119.145 177.25Z" fill="#15ACC0" stroke="#283252" stroke-miterlimit="10"/>
<path d="M113.125 200.52C113.125 200.52 111.465 209.25 113.545 210.29C115.625 211.33 128.085 214.65 129.125 213.2C130.165 211.75 128.705 205.51 128.705 205.51C128.705 205.51 114.165 198.86 113.125 200.52Z" fill="#15ACC0" stroke="#283252" stroke-miterlimit="10"/>
<path d="M171.005 405.39C171.005 405.39 177.775 410.46 179.705 410.95C181.635 411.43 188.405 413.61 189.125 414.82C189.845 416.03 189.125 419.89 188.155 421.34C187.185 422.79 173.415 424.96 166.895 424.24C160.375 423.52 146.115 426.9 144.665 422.31C143.215 417.72 145.635 410.95 145.635 410.95C145.635 410.95 166.655 406.36 171.005 405.39Z" fill="white" stroke="#283252" stroke-miterlimit="10"/>
<path d="M184.055 420.13C181.395 420.85 170.765 421.34 158.205 421.82C150.205 422.13 146.135 420.58 144.225 419.41C144.255 420.41 144.395 421.4 144.675 422.31C146.125 426.9 160.385 423.52 166.905 424.24C173.425 424.96 187.205 422.79 188.165 421.34C188.545 420.76 188.895 419.8 189.125 418.78C187.415 419.23 185.375 419.77 184.055 420.13Z" fill="white" stroke="#283252" stroke-miterlimit="10"/>
<path d="M82.335 390.89C82.335 390.89 76.535 402.97 77.505 405.63C78.475 408.29 81.375 408.77 84.025 409.74C86.675 410.71 93.445 410.46 95.385 411.67C97.325 412.88 106.495 416.99 110.845 417.71C115.195 418.43 119.785 416.5 120.265 414.57C120.745 412.64 113.255 406.84 110.355 404.91C107.455 402.98 102.865 396.21 102.865 396.21L82.325 390.89H82.335Z" fill="white" stroke="#283252" stroke-miterlimit="10"/>
<path d="M91.9949 408.53C86.6149 407.24 79.1449 404.04 77.5749 403.35C77.3749 404.34 77.3249 405.14 77.5049 405.63C78.4749 408.29 81.3749 408.77 84.0249 409.74C86.6849 410.71 93.4449 410.46 95.3849 411.67C97.3249 412.88 106.495 416.99 110.845 417.71C115.195 418.43 119.785 416.5 120.265 414.57C120.365 414.19 120.135 413.64 119.695 413.01C117.675 414.23 114.925 415.64 112.775 415.77C108.905 416.01 98.0349 409.97 91.9949 408.52V408.53Z" fill="white" stroke="#283252" stroke-miterlimit="10"/>
<path d="M130.185 237.76C130.185 237.76 124.855 258.26 124.615 264.06C124.375 269.86 124.855 275.66 124.855 275.66C124.855 275.66 120.985 278.56 121.715 280.98C122.435 283.4 123.645 285.09 123.645 285.09C123.645 285.09 114.465 320.12 113.255 321.82C112.045 323.52 99.2449 343.32 95.8549 350.09C92.4749 356.86 84.4949 385.1 84.4949 385.1C84.4949 385.1 82.8049 386.79 82.5649 388.48C82.3249 390.17 81.8449 393.07 81.8449 393.07C81.8449 393.07 84.5049 398.39 91.7549 399.35C99.0049 400.32 102.865 398.87 102.865 398.87C102.865 398.87 104.075 397.18 104.555 394.76C105.035 392.34 105.765 388.48 105.765 388.48L119.295 365.04L141.765 323.75L148.535 304.42C148.535 304.42 151.675 332.93 151.435 334.14C151.195 335.35 144.915 357.07 144.915 367.7C144.915 378.33 145.635 400.56 145.635 400.56C145.635 400.56 143.705 403.94 144.185 405.88L144.665 407.81L145.635 410.95C145.635 410.95 155.055 410.71 159.405 409.98C163.755 409.26 171.005 405.39 171.005 405.39C171.005 405.39 171.725 402.01 171.005 400.8C170.285 399.59 169.315 398.38 169.075 397.18C168.835 395.97 168.105 393.07 168.835 389.69C169.555 386.31 177.045 335.59 179.945 322.79C182.845 309.98 183.565 268.67 183.325 261.18C183.085 253.69 182.115 248.37 182.115 248.37L182.595 239.67C182.595 239.67 169.065 233.87 157.465 233.15C145.865 232.43 131.855 234.6 131.855 234.6L130.175 237.77L130.185 237.76Z" fill="#283252" stroke="#283252" stroke-miterlimit="10"/>
<path d="M134.765 276.87L143.705 291.37L147.565 302.72" stroke="#8F8F8F" stroke-miterlimit="10"/>
<path d="M151.325 276.49C153.015 274.99 154.685 273.38 155.295 272.77C156.505 271.56 158.195 254.89 158.435 254.17" stroke="#8F8F8F" stroke-miterlimit="10"/>
<path d="M133.555 256.33C133.555 256.33 133.555 268.89 135.005 271.55C136.455 274.21 145.875 280.01 147.325 279.52" stroke="#8F8F8F" stroke-miterlimit="10"/>
<path d="M136.215 250.78C136.215 250.78 149.265 248.61 157.715 251.5" stroke="#283252" stroke-miterlimit="10"/>
<path d="M168.495 314.97C168.815 322.06 169.105 332.04 168.345 334.62C167.135 338.73 166.415 339.45 165.685 341.39C164.965 343.32 165.925 345.5 165.445 346.71C164.965 347.92 163.515 369.16 162.305 374.71C161.095 380.27 160.855 392.35 160.855 392.35" stroke="#8F8F8F" stroke-miterlimit="10"/>
<path d="M172.695 243.29C172.695 243.29 171.005 264.55 170.275 271.32C169.555 278.09 167.135 288.47 167.375 292.82C167.615 297.17 168.095 307.56 168.095 307.56C168.095 307.56 168.155 308.49 168.235 310.02" stroke="#8F8F8F" stroke-miterlimit="10"/>
<path d="M161.345 395.48V401.04C161.345 401.04 163.275 401.52 162.795 403.46C162.315 405.39 160.625 406.84 160.625 406.84" stroke="#283252" stroke-miterlimit="10"/>
<path d="M125.035 141.03C125.035 141.03 117.125 149.67 115.105 159.6C113.085 169.53 119.885 182.96 119.885 182.96L131.285 225.07C131.285 225.07 127.975 227.64 127.795 229.85C127.615 232.06 128.535 237.21 130.185 237.76C131.845 238.31 157.585 238.13 157.585 238.13C157.585 238.13 183.145 242.73 183.695 242.73C184.245 242.73 187.185 240.16 187.185 237.21C187.185 234.26 186.635 230.04 186.445 228.2C186.255 226.36 178.905 178 178.165 174.69C177.425 171.38 177.165 158.3 177.165 158.3L192.565 146.87L195.195 143.48L183.415 124.46C183.415 124.46 164.545 129.07 163.625 129.81C162.705 130.55 125.005 141.03 125.005 141.03H125.035Z" fill="#15ACC0" stroke="#283252" stroke-miterlimit="10"/>
<path d="M179.095 126.72C179.095 126.72 191.545 149.34 192.295 149.25C193.045 149.16 199.965 144.06 200.455 143.01C200.955 141.96 200.125 139.64 200.125 139.64C200.125 139.64 187.175 122.7 186.005 121.63C184.835 120.56 183.495 120.96 183.035 121.64C182.575 122.32 178.245 122.91 179.085 126.72H179.095Z" fill="#15ACC0" stroke="#283252" stroke-miterlimit="10"/>
<path d="M177.185 158.3L152.965 176.38" stroke="#283252" stroke-miterlimit="10"/>
<path d="M148.845 203.55C147.595 205.72 146.305 207.73 144.975 209.47" stroke="#283252" stroke-miterlimit="10"/>
<path d="M161.305 174.29C161.305 174.29 158.355 185.49 150.475 200.58" stroke="#283252" stroke-miterlimit="10"/>
<path d="M152.535 204.44C152.535 204.44 143.585 217.86 139.395 221.49" stroke="#283252" stroke-miterlimit="10"/>
</g>
<defs>
<clipPath id="clip0_226_2951">
<rect width="485.37" height="430.62" fill="white" transform="translate(0.314941 0.189941)"/>
</clipPath>
</defs>
</svg>
